<svg width="20" height="20" viewBox="0 0 20 20" fill="none" xmlns="http://www.w3.org/2000/svg">
<path d="M4.16602 11.9051C2.62321 12.5857 1.66602 13.5341 1.66602 14.5832C1.66602 16.6542 5.39698 18.3332 9.99935 18.3332C14.6017 18.3332 18.3327 16.6542 18.3327 14.5832C18.3327 13.5341 17.3755 12.5857 15.8327 11.9051M14.9993 6.6665C14.9993 10.0529 11.2493 11.6665 9.99935 14.1665C8.74935 11.6665 4.99935 10.0529 4.99935 6.6665C4.99935 3.90508 7.23793 1.6665 9.99935 1.6665C12.7608 1.6665 14.9993 3.90508 14.9993 6.6665ZM10.8327 6.6665C10.8327 7.12674 10.4596 7.49984 9.99935 7.49984C9.53911 7.49984 9.16602 7.12674 9.16602 6.6665C9.16602 6.20627 9.53911 5.83317 9.99935 5.83317C10.4596 5.83317 10.8327 6.20627 10.8327 6.6665Z" stroke="#717680" stroke-width="1.66667" stroke-linecap="round" stroke-linejoin="round"/>
</svg>
