<svg width="87" height="111" viewBox="0 0 87 111" fill="none" xmlns="http://www.w3.org/2000/svg">
    <path
        d="M43.5044 49.1069C50.2273 49.1069 55.6773 43.6569 55.6773 36.934C55.6773 30.211 50.2273 24.761 43.5044 24.761C36.7814 24.761 31.3314 30.211 31.3314 36.934C31.3314 43.6569 36.7814 49.1069 43.5044 49.1069Z"
        fill="#FF974A" />
    <path
        d="M15.8176 23.4757C18.3632 24.626 21.3689 24.1609 23.3994 22.2404C27.4554 18.4045 32.6166 15.7038 38.368 14.6886C40.0534 14.3935 41.7739 14.2435 43.4893 14.2435C45.2047 14.2435 46.9301 14.3935 48.6105 14.6886C62.6089 17.1542 72.7664 29.2821 72.7664 43.5205C72.7664 43.7356 72.7614 43.9607 72.7464 44.1857C72.5963 47.1064 74.1517 49.8421 76.8123 51.0424L77.1374 51.1874C81.5685 53.1929 86.6147 50.1321 86.9398 45.281C86.9798 44.6858 86.9998 44.0957 86.9998 43.5155C86.9998 22.3504 71.8912 4.32605 51.0761 0.66016C46.0849 -0.220053 40.8836 -0.220053 35.8874 0.66016C27.2703 2.18053 19.5485 6.24152 13.492 12.0179C9.95115 15.3987 11.0214 21.3102 15.4825 23.3257L15.8076 23.4707L15.8176 23.4757Z"
        fill="#FF974A" />
    <path
        d="M74.1068 76.9137C72.3163 79.7743 70.4959 82.495 68.7355 85.0006C64.5845 90.922 60.0184 96.7635 55.8774 101.445C49.1357 109.061 46.6051 110.352 43.4944 110.352C40.0685 110.352 37.4079 108.476 31.6065 102.005C27.7655 97.7187 23.4495 92.2774 19.4485 86.696C11.6666 75.8134 2.04432 60.2396 0.273887 47.5715C0.253882 47.4615 0.233874 47.3465 0.223871 47.2365C0.113845 46.4062 0.0438266 45.5961 0.00381695 44.8109C-0.0812036 43.0454 1.26913 41.065 2.55444 39.9947C4.16483 38.6594 6.41037 38.0342 8.46587 38.5093C10.0412 38.8744 11.9517 39.6896 12.9169 41.04C13.8222 42.3053 14.1222 43.9156 14.3473 45.426C14.6474 47.4365 15.1675 49.387 15.8327 51.3074C17.6631 56.5937 20.3137 61.5999 23.1594 66.4011C23.3495 66.7212 25.2599 69.5169 25.1499 69.6569L35.6074 56.5337C37.6429 53.9831 41.1438 53.1429 44.1095 54.4832L44.2895 54.5682C48.5256 56.4787 49.8209 61.865 46.9302 65.4959L33.717 82.0649C37.5279 87.1361 41.0288 91.2671 43.4944 93.9128C47.1102 90.0218 52.9566 82.9401 58.648 74.5431C59.8483 72.7776 60.9736 71.0472 62.0238 69.3618C63.9193 66.3361 67.7452 65.1658 70.996 66.6361C74.932 68.4116 76.3923 73.2578 74.1018 76.9137H74.1068Z"
        fill="#FF974A" />
</svg>