<svg width="32" height="24" viewBox="0 0 32 24" fill="none" xmlns="http://www.w3.org/2000/svg">
<g clip-path="url(#clip0_1108_23228)">
<path d="M0 4.5C0 2.29086 1.79086 0.5 4 0.5H28C30.2091 0.5 32 2.29086 32 4.5V19.5C32 21.7091 30.2091 23.5 28 23.5H4C1.79086 23.5 0 21.7091 0 19.5V4.5Z" fill="white"/>
<rect y="0.5" width="32" height="24" fill="#006923"/>
<path fill-rule="evenodd" clip-rule="evenodd" d="M13.0736 5.5C13.0496 5.5 13.0136 5.512 12.9676 5.54C12.8596 5.61201 12.6476 5.83403 12.6396 6.09004C12.6336 6.23606 12.6056 6.23606 12.6996 6.33006C12.7676 6.42607 12.8396 6.41807 12.9756 6.34406C13.0556 6.28406 13.0816 6.25006 13.1096 6.15205C13.1416 5.99204 12.9356 6.23205 12.9096 6.04804C12.8636 5.88003 12.9956 5.80802 13.1196 5.64801C13.1236 5.56801 13.1236 5.508 13.0736 5.504V5.5ZM15.0798 5.51C15.0397 5.518 14.9937 5.57001 14.9277 5.68601C14.8817 5.81002 14.6797 5.99804 14.8277 6.38607C14.9437 6.63208 14.9937 7.03011 14.9397 7.47615C14.8557 7.60216 14.8397 7.64616 14.7297 7.77217C14.5777 7.93818 14.4097 7.89618 14.2857 7.83217C14.1657 7.75217 14.0737 7.71216 14.0197 7.46015C14.0297 7.06012 14.0537 6.39607 13.9797 6.25606C13.8717 6.04004 13.6916 6.11605 13.6156 6.18205C13.2496 6.52208 13.0676 7.08812 12.9556 7.54215C12.8556 7.87018 12.7456 7.77417 12.6696 7.64216C12.4836 7.46615 12.4696 6.10205 12.2455 6.32806C11.8855 7.35614 12.4516 8.48222 12.8456 8.37221C13.1256 8.49222 13.3056 7.95218 13.4216 7.36214C13.5016 7.19613 13.5616 7.17613 13.6016 7.26213C13.5916 8.04619 13.6616 8.2222 13.8617 8.45822C14.3097 8.80625 14.6817 8.50222 14.7117 8.47422L15.0618 8.12619C15.1418 8.04619 15.2418 8.03819 15.3518 8.11019C15.4598 8.2102 15.4458 8.37621 15.6718 8.49022C15.8678 8.57023 16.2778 8.51022 16.3718 8.34421C16.5019 8.1242 16.5319 8.04819 16.5919 7.96418C16.6839 7.84417 16.8419 7.89818 16.8419 7.93618C16.8279 8.00619 16.7359 8.07619 16.7979 8.1962C16.9079 8.27621 16.9339 8.2242 16.9979 8.2062C17.2259 8.09819 17.3979 7.60216 17.3979 7.60216C17.4079 7.41814 17.3039 7.43214 17.2379 7.47015C17.1479 7.52415 17.1439 7.54215 17.0579 7.59616C16.9439 7.61216 16.7279 7.68616 16.6219 7.52015C16.5119 7.32014 16.5119 7.04412 16.4279 6.8401C16.4279 6.8281 16.2818 6.52608 16.4159 6.50807C16.4819 6.52008 16.6299 6.55808 16.6519 6.43607C16.7239 6.31606 16.4979 5.97604 16.3438 5.80802C16.2118 5.66201 16.0278 5.64401 15.8498 5.79202C15.7238 5.90803 15.7438 6.03604 15.7178 6.15805C15.6878 6.29806 15.6938 6.47207 15.8378 6.65809C15.9618 6.9021 16.1878 7.21813 16.1118 7.66216C16.1118 7.66216 15.9818 7.87418 15.7518 7.84617C15.6518 7.82617 15.4958 7.78617 15.4118 7.16612C15.3518 6.70009 15.4278 6.04604 15.2318 5.74002C15.1858 5.62601 15.1478 5.514 15.0838 5.52L15.0798 5.51ZM14.4437 5.562C14.3837 5.56801 14.3177 5.63801 14.2637 5.77202C14.2177 5.87603 14.1597 6.41207 14.1697 6.41207C14.1297 6.57208 14.3357 6.64008 14.4297 6.43607C14.5697 6.05604 14.5697 5.89603 14.5777 5.74002C14.5577 5.62001 14.5037 5.558 14.4437 5.562ZM16.7899 5.60201C16.7299 5.61001 16.6799 5.64601 16.6619 5.73802C16.6359 5.95003 16.6499 6.06804 16.6859 6.24606C16.7119 6.36606 16.8859 6.56208 16.9699 6.67809C17.3759 7.22413 17.77 7.77217 18.146 8.33821C18.206 8.76224 18.246 9.17427 18.276 9.5863C18.34 10.4864 18.356 11.6065 18.302 12.5565C18.47 12.5625 18.742 12.2825 18.836 11.8765C18.896 11.3084 18.816 10.1563 18.808 9.82032L18.788 9.34429C19.2281 10.0643 19.6521 10.8244 20.0681 11.6565C20.2221 11.5845 20.1881 10.7264 20.1001 10.6064C19.7641 9.88633 19.3001 9.17427 19.1541 8.90025C19.1001 8.80025 18.918 8.52623 18.704 8.2082C18.664 7.75217 18.62 7.36814 18.592 7.25213C18.522 6.77209 18.788 7.30613 18.752 7.02811C18.664 6.54808 18.4 6.22405 18.088 5.78402C17.988 5.64401 17.988 5.61201 17.834 5.82002C17.7439 6.03004 17.7439 6.20605 17.774 6.37006C17.7299 6.31006 17.6799 6.24205 17.6079 6.15405L17.0979 5.72202C17.0279 5.67201 16.8919 5.59601 16.7899 5.60201ZM23.7424 5.67601C23.7124 5.67201 23.6824 5.68601 23.6424 5.74002C23.5724 5.80002 23.4984 5.91403 23.5024 6.06004C23.5164 6.31006 23.5624 6.56808 23.5784 6.8201L23.5984 6.92011C23.5704 6.8881 23.5464 6.8601 23.5324 6.8481C23.0383 6.32806 23.7584 6.76009 23.4364 6.36206C23.1664 6.06204 23.0863 5.97004 22.8563 5.79002C22.7363 5.71802 22.6683 5.57401 22.6303 5.81802C22.6143 6.03204 22.5983 6.28206 22.6103 6.46207C22.6103 6.56208 22.7163 6.75209 22.8063 6.8621C23.1343 7.26813 23.4704 7.69816 23.8064 8.1462C23.8784 9.06026 23.8964 9.89833 23.9664 10.8144C23.9584 11.2064 23.8384 11.7265 23.7264 11.7745C23.7264 11.7745 23.5504 11.8745 23.4344 11.7645C23.3484 11.7305 23.0103 11.1984 23.0103 11.1984C22.8363 11.0384 22.7203 11.0844 22.5983 11.1984C22.2583 11.5264 22.1023 12.1425 21.8723 12.5665C21.8123 12.6605 21.6462 12.7425 21.4602 12.5585C20.9862 11.9105 21.2602 10.9884 21.2042 11.2264C20.7842 11.7025 20.9682 12.4905 21.0642 12.6605C21.2042 12.9406 21.3162 13.1206 21.5842 13.2546C21.8343 13.4346 22.0243 13.3246 22.1323 13.1946C22.3803 12.9386 22.3843 12.2805 22.5003 12.1505C22.5803 11.9105 22.7863 11.9505 22.8863 12.0585C22.9863 12.1985 23.0983 12.2885 23.2404 12.3645C23.4724 12.5685 23.7484 12.6045 24.0204 12.4185C24.2064 12.3145 24.3284 12.1785 24.4364 11.9105C24.5565 11.5985 24.4965 9.95833 24.4704 9.04626L24.9905 9.79832C25.0625 10.5984 25.0965 11.3884 25.0705 12.1445C25.0545 12.2945 25.5965 11.6965 25.5905 11.4124C25.5905 11.1664 25.5945 10.9404 25.5905 10.7324C25.8566 11.1524 26.1106 11.5785 26.3506 12.0125C26.5006 11.9325 26.4506 11.0864 26.3566 10.9724C26.1046 10.5484 25.7805 10.0923 25.5305 9.73632C25.4805 9.29028 25.4145 8.76424 25.3825 8.60223C25.3365 8.35021 25.2885 7.97218 25.2165 7.67416C25.1965 7.56015 25.1365 7.18813 25.1565 7.15412C25.1845 7.06812 25.2965 7.15412 25.3505 7.05812C25.4305 6.96811 25.0665 6.01804 24.8805 5.75002C24.8145 5.63001 24.6925 5.67001 24.5445 5.87003C24.4044 5.99804 24.4564 6.29406 24.5085 6.57608C24.6445 7.29613 24.7685 8.02419 24.8645 8.75624C24.6845 8.48622 24.4644 8.1622 24.2484 7.85217L24.2204 7.71216C24.2204 7.69616 24.1924 7.12212 24.1664 6.98611C24.1604 6.93011 24.1464 6.91411 24.2064 6.92211C24.2664 6.97411 24.2744 6.97611 24.3124 6.99411C24.3764 7.00211 24.4324 6.8981 24.3924 6.8001L23.8124 5.73202C23.7924 5.70602 23.7644 5.68201 23.7324 5.67801L23.7424 5.67601ZM5.80106 5.69602C5.69105 5.69201 5.57505 5.75602 5.62105 5.88603C5.59305 5.95603 5.82906 6.19205 5.87107 6.32206C5.90507 6.41607 5.83106 6.71209 5.91107 6.74209C5.98108 6.77209 6.07908 6.53408 6.11509 6.31606C6.13509 6.19605 6.12109 5.78402 5.84106 5.70002C5.82706 5.69601 5.81306 5.69601 5.79706 5.69401L5.80106 5.69602ZM26.2426 5.69602C26.2166 5.70002 26.1866 5.73602 26.1426 5.83602C26.0326 6.01604 25.9946 6.33606 26.0386 6.61608C26.2986 8.39622 26.4986 10.1203 26.5386 11.6965C26.5146 11.8485 26.5066 11.9285 26.4386 12.1165C26.2826 12.3165 26.1106 12.5645 25.9486 12.6845C25.7885 12.8045 25.4445 12.9206 25.3325 13.0086C24.9725 13.2126 24.9725 13.4486 25.2605 13.4586C25.7565 13.3986 26.3446 13.3586 26.7486 12.7485C26.8566 12.5785 26.9846 12.1145 26.9886 11.8285C27.0286 10.1683 26.9686 8.53823 26.7186 7.33614C26.7026 7.21613 26.6506 6.95011 26.6706 6.91611C26.7006 6.8321 26.8626 6.92211 26.9206 6.8281C27.0066 6.74009 26.5006 6.09404 26.3246 5.81802C26.2886 5.75002 26.2646 5.69201 26.2366 5.69802L26.2426 5.69602ZM21.0362 5.72402C21.0162 5.72802 20.9882 5.76002 20.9322 5.83402C20.7922 6.28606 20.7442 6.65409 20.7982 6.93811C21.1582 8.79825 21.5182 10.4884 21.4622 12.2585C21.6302 12.2585 21.8263 11.8725 21.9103 11.4884C21.9563 10.9584 21.8783 10.6364 21.8663 10.3284C21.8523 10.0163 21.5142 7.49615 21.4462 7.26213C21.3622 6.8181 21.7742 7.20213 21.7302 6.94611C21.5862 6.61808 21.2302 6.14605 21.1222 5.86003C21.0822 5.78402 21.0742 5.71402 21.0422 5.72002L21.0362 5.72402ZM8.36725 5.76002C8.32725 5.76802 8.28125 5.80402 8.26725 5.86003C8.25725 5.90003 8.28325 5.96604 8.24724 5.98604C8.22724 6.00604 8.15124 5.99204 8.15524 5.88603C8.15524 5.85003 8.12924 5.81402 8.11523 5.79202C8.09923 5.78402 8.08923 5.78202 8.06123 5.78202C8.02723 5.78202 8.02723 5.79202 8.00923 5.82202C8.00123 5.85003 7.98923 5.87803 7.98923 5.91003C7.98522 5.95003 7.96922 5.96003 7.94322 5.96603C7.91122 5.96603 7.91722 5.97004 7.89322 5.95203C7.87322 5.93803 7.85722 5.93203 7.85722 5.90403C7.85722 5.87403 7.84921 5.82402 7.84121 5.80802C7.82721 5.78802 7.80521 5.78002 7.78121 5.77402C7.6492 5.77402 7.6412 5.93003 7.6472 5.98604C7.6372 5.99804 7.6332 6.26606 7.81321 6.34206C8.05323 6.45807 8.50926 6.40807 8.49326 6.01804C8.49326 5.98404 8.48326 5.86803 8.47926 5.83802C8.45526 5.77802 8.40926 5.75802 8.36525 5.76402L8.36725 5.76002ZM11.6195 5.76402C11.5355 5.76802 11.4595 5.79202 11.3995 5.82402C11.2395 5.97804 11.1995 6.22405 11.3275 6.37806C11.4475 6.43807 11.5735 6.55808 11.4915 6.62808C11.1435 6.99811 10.2374 7.62016 10.1914 7.73417V7.74617H10.1994V7.75017C10.2454 7.78017 10.8134 7.78017 10.8754 7.75017H10.8794C11.0755 7.67616 11.9995 6.62008 11.9995 6.62008C11.9515 6.58008 11.9075 6.54808 11.8595 6.50607C11.8075 6.46207 11.8135 6.41807 11.8595 6.37406C12.0875 6.24206 12.0155 5.94803 11.8955 5.81402C11.7955 5.77002 11.7035 5.75402 11.6195 5.76002V5.76402ZM20.1201 5.76402C20.0961 5.77002 20.0661 5.80402 20.0201 5.90403C19.9101 6.08404 19.8361 6.39407 19.8461 6.68409C20.0821 8.32421 20.1541 9.75832 20.3101 11.3984C20.3221 11.5585 20.2981 11.7865 20.1941 11.8785C19.8021 12.2865 19.2401 12.7865 18.628 13.0186C18.562 13.0926 18.792 13.4066 19.088 13.4066C19.5841 13.3466 20.0201 13.0706 20.4281 12.3365C20.5342 12.1665 20.7242 11.8005 20.7282 11.5164C20.7682 9.85232 20.6482 8.55623 20.3961 7.35614C20.3821 7.23613 20.3921 7.09612 20.4121 7.06412C20.4441 7.02411 20.5522 7.06412 20.6122 6.97011C20.6962 6.8821 20.3841 6.16405 20.2081 5.89003C20.1721 5.82002 20.1521 5.76202 20.1201 5.76402ZM6.95115 5.81802C6.88314 5.82602 6.81914 5.87803 6.78714 5.95803C6.77713 6.21805 6.77513 6.47807 6.80714 6.72209C6.92715 7.14812 6.96115 7.52215 7.01915 7.95618C7.03915 8.54023 6.68313 8.2082 6.69913 7.92018C6.77914 7.54415 6.75913 6.95411 6.68713 6.8041C6.62712 6.65409 6.56312 6.61808 6.42311 6.64409C6.3131 6.63608 6.02708 6.94411 5.94707 7.46415C5.94707 7.46415 5.87907 7.72817 5.85107 7.96418C5.81106 8.2302 5.63505 8.42022 5.51104 7.92818C5.40503 7.56815 5.34103 6.68809 5.16301 6.8921C5.11101 7.58016 5.05101 8.79224 5.63505 8.91625C6.3431 8.98426 5.95107 7.72017 6.20709 7.49015C6.2571 7.38014 6.3471 7.37814 6.3531 7.52015V8.59423C6.3451 8.94226 6.57312 9.04626 6.75313 9.11827C6.93915 9.10427 7.06116 9.11027 7.13316 9.29028L7.22317 11.1504C7.22317 11.1504 7.6512 11.2704 7.6712 10.1043C7.6912 9.41829 7.53119 8.84425 7.6252 8.71024C7.6292 8.57823 7.79721 8.57023 7.91322 8.63623C8.09923 8.76624 8.18124 8.92625 8.46926 8.86225C8.90929 8.74224 9.16931 8.53022 9.17531 8.1942C9.15531 7.87418 9.11531 7.55415 8.9753 7.23413C8.9953 7.17812 8.89529 7.02811 8.91529 6.97011C8.9913 7.09012 9.11131 7.08212 9.13531 6.97011C9.0633 6.72409 8.9473 6.49007 8.75928 6.39007C8.60527 6.25006 8.37925 6.28006 8.29525 6.56408C8.25524 6.8921 8.41526 7.28013 8.65527 7.59816C8.70328 7.72217 8.77528 7.92818 8.74328 8.11419C8.61727 8.1862 8.49126 8.1542 8.38325 8.04419C8.38325 8.04419 8.03723 7.78417 8.03723 7.72417C8.13124 7.13412 8.05723 7.06412 8.00723 6.9041C7.97122 6.67609 7.86321 6.60408 7.77721 6.44807C7.6892 6.35406 7.57119 6.35406 7.51719 6.44807C7.36118 6.71409 7.43318 7.28813 7.54519 7.54215C7.6252 7.77817 7.74921 7.92618 7.6912 7.92618C7.6432 8.05619 7.54319 8.02619 7.47119 7.87218C7.37118 7.55215 7.34718 7.08012 7.34718 6.8661C7.31718 6.60208 7.28317 6.03604 7.10716 5.89203C7.06116 5.82803 7.00715 5.80602 6.95315 5.81202L6.95115 5.81802ZM9.43533 5.81802C9.40133 5.82602 9.36133 5.84603 9.31532 5.85803C9.16531 5.90403 9.0253 6.03404 9.06931 6.28606C9.24932 7.36614 9.36333 8.1922 9.54134 9.27228C9.56734 9.40029 9.46133 9.5663 9.32532 9.5523C9.09331 9.39229 9.0353 9.07227 8.63927 9.08827C8.35125 9.08827 8.02323 9.40429 7.98322 9.70431C7.93522 9.94433 7.91922 10.2043 7.98322 10.4124C8.18324 10.6524 8.42726 10.6284 8.63927 10.5724C8.81329 10.5024 8.9593 10.3324 9.0193 10.3724C9.0593 10.4384 9.0153 11.0004 8.19924 11.4324C7.6952 11.6605 7.29517 11.7125 7.07916 11.3044C6.94715 11.0484 7.09116 10.0723 6.76313 10.2964C5.79106 12.8005 9.0373 13.1486 9.39933 10.4004C9.42333 10.3204 9.49334 10.2444 9.54534 10.2644C9.56534 10.2744 9.58534 10.3044 9.59334 10.3604C9.51734 12.8485 7.08116 13.0206 6.66913 12.2365C6.56512 12.0525 6.53512 11.6405 6.52512 11.3964C6.50511 11.2464 6.46911 11.1604 6.42511 11.1264C6.3251 11.0524 6.19309 11.2464 6.16509 11.5805C6.12509 11.8505 6.13509 11.9245 6.13509 12.1845C6.2671 14.1506 9.40133 13.3046 9.91137 11.6845C10.1634 10.8444 9.90537 10.2104 9.99137 10.1323L9.99737 10.1283H10.0034L10.0134 10.1243C10.3254 10.4604 10.7614 10.1643 10.8574 10.0503C10.8974 9.99033 11.0014 9.95033 11.0735 10.0303C11.3135 10.2023 11.7415 10.1203 11.8295 9.81032C11.8815 9.5103 11.9255 9.20228 11.9355 8.88025C11.7755 8.93026 11.6475 8.96626 11.5955 9.02026C11.5835 9.03426 11.5755 9.05026 11.5715 9.06627L11.5315 9.33228C11.5315 9.34229 11.5275 9.34829 11.5235 9.35229C11.5175 9.36629 11.5035 9.37629 11.4955 9.38229C11.4395 9.41229 11.3415 9.39629 11.3355 9.31428C11.2615 8.97426 10.9514 8.93026 10.7634 9.46029C10.6374 9.5603 10.4034 9.5803 10.3834 9.42829C10.4134 9.07227 10.2694 9.02426 9.98337 9.19227L9.70735 7.11212C9.82736 7.10612 9.93537 7.19213 10.0474 7.05612C9.92737 6.68809 9.67735 5.94003 9.53534 5.86803H9.53134L9.51134 5.84803C9.51134 5.84403 9.50534 5.84203 9.50134 5.84003L9.49334 5.82802C9.48534 5.82802 9.47733 5.82402 9.47333 5.82202C9.45933 5.81802 9.44933 5.81802 9.43533 5.81802ZM19.1201 5.82602C18.996 5.82202 18.86 5.90003 18.912 6.05604C18.88 6.14205 19.1781 6.43007 19.2261 6.58608C19.3121 6.8261 19.1601 7.06012 19.2501 7.09412C19.3341 7.13012 19.4501 6.8441 19.4901 6.57808C19.5421 6.36206 19.3901 5.92203 19.1701 5.83202L19.1201 5.82802V5.82602ZM11.5735 6.08804C11.6295 6.08404 11.6975 6.13605 11.7335 6.20805C11.7675 6.28806 11.7495 6.36206 11.6935 6.37606C11.6335 6.39007 11.5575 6.34006 11.5215 6.26006C11.4855 6.18005 11.5015 6.10605 11.5615 6.09204H11.5735V6.08804ZM25.5685 6.45207C25.4545 6.44807 25.3285 6.53208 25.3805 6.70209C25.3525 6.7941 25.6205 7.10612 25.6665 7.27813C25.7065 7.39814 25.6065 7.79017 25.6865 7.82617C25.7625 7.86618 25.8666 7.55415 25.9066 7.26613C25.9306 7.10612 25.8145 6.55608 25.6165 6.45807C25.6025 6.45407 25.5865 6.45007 25.5705 6.45007L25.5685 6.45207ZM17.828 6.64409C17.842 6.69009 17.852 6.73609 17.858 6.7841C17.882 6.8841 17.902 6.98411 17.922 7.08812C17.834 6.96411 17.762 6.8641 17.7279 6.8281C17.5279 6.58808 17.7319 6.67209 17.828 6.64409ZM19.6141 7.52015C19.5701 7.52815 19.5281 7.56615 19.5141 7.62616C19.5021 7.66216 19.5301 7.72617 19.4941 7.74617C19.4741 7.76617 19.3941 7.75417 19.4001 7.64616C19.4001 7.61016 19.3741 7.57215 19.3601 7.55215C19.3441 7.54215 19.3341 7.53815 19.3061 7.53815C19.2721 7.53815 19.2721 7.54815 19.2541 7.57815C19.2461 7.60616 19.2341 7.63416 19.2341 7.66816C19.2341 7.70816 19.2181 7.72017 19.1901 7.72817C19.1581 7.72817 19.1641 7.72817 19.1381 7.71416C19.1221 7.69416 19.104 7.69016 19.104 7.66216C19.104 7.63216 19.0981 7.58616 19.088 7.56615C19.074 7.54615 19.054 7.54015 19.028 7.53215C18.898 7.53215 18.888 7.68416 18.896 7.74017C18.888 7.75217 18.882 8.02419 19.062 8.10019C19.3061 8.2142 19.7621 8.1602 19.7421 7.77217C19.7421 7.73817 19.7321 7.62216 19.7301 7.59216C19.7041 7.53215 19.6581 7.51215 19.6161 7.51815L19.6141 7.52015ZM11.4735 7.60016C11.4455 7.60016 11.4055 7.60816 11.3595 7.63616C11.1455 7.75217 11.0635 8.09619 11.1995 8.29621C11.3195 8.47622 11.5195 8.41022 11.5455 8.41022C11.7555 8.43822 11.8795 8.01819 11.8795 8.01819C11.8795 8.01819 11.8855 7.89818 11.6395 8.1222C11.5315 8.1422 11.5195 8.10219 11.4915 8.04219C11.4675 7.93618 11.4715 7.82217 11.5215 7.71616C11.5455 7.65016 11.5215 7.60816 11.4735 7.60416V7.60016ZM22.9803 7.65416C22.8603 7.64816 22.7343 7.72617 22.7003 7.88818C22.7003 7.98418 22.7443 8.03619 22.7363 8.12419C22.7263 8.1742 22.6763 8.2042 22.5523 8.1482C22.5723 8.1282 22.4723 7.99219 22.4723 7.99219C22.3783 7.93218 22.2523 7.99218 22.1683 8.04819C22.1223 8.1322 22.0883 8.27421 22.1403 8.41822C22.2763 8.67224 22.7463 9.10427 22.9703 9.10827C22.9743 8.88025 22.9963 8.57623 23.0103 8.38821C23.0143 8.31621 23.0303 8.2382 23.1003 8.2202C23.1684 8.2002 23.2864 8.28821 23.2864 8.2142C23.2744 8.07019 23.2464 7.85418 23.1664 7.75417C23.1223 7.69416 23.0523 7.65816 22.9823 7.65416H22.9803ZM13.4536 8.44822L13.4476 8.45422C13.4476 8.45422 13.4436 8.45422 13.4416 8.45822C13.4176 8.47822 13.3896 8.51822 13.3276 8.55823C13.2216 8.67824 13.2036 8.76424 13.2076 9.00426C13.2156 9.03026 13.4076 9.5703 13.5736 9.94833C13.6856 10.3424 13.7877 10.7944 13.7137 11.2204C13.4536 11.7845 12.9336 12.2905 12.4276 12.5665C12.1675 12.6465 11.9475 12.6185 11.8875 12.5625C11.7395 12.4625 11.7375 12.2825 11.7475 12.2545V12.2485C12.1715 11.9525 12.6576 11.7125 13.0376 10.9144C13.1496 10.6084 13.1856 10.4244 13.0736 9.95433C13.0296 9.77432 12.9736 9.63431 12.8536 9.5063H12.8576C12.9296 9.4723 13.1176 9.61031 13.1476 9.5263C13.1016 9.29828 12.9476 8.99626 12.7776 8.84025C12.6256 8.70024 12.4576 8.68624 12.3215 8.81225C12.1655 8.90025 12.1335 9.21228 12.2075 9.4843C12.2915 9.68831 12.5176 9.72431 12.6776 10.1383C12.6816 10.1663 12.7316 10.4484 12.6516 10.5644C12.5836 10.7684 11.7415 11.4324 11.6815 11.4724L11.6755 11.4764L11.6715 11.4804H11.6675H11.6635V11.4744C11.6595 11.4584 11.6635 11.4144 11.6635 11.3484C11.6575 11.2244 11.7095 10.9424 11.7035 10.8924V10.8884C11.4235 11.0684 11.3295 11.6185 11.2795 11.7825C10.5734 12.2685 9.77336 12.6305 9.31132 13.1226C9.07131 13.5026 10.9674 12.6945 11.1875 12.5965L11.1935 12.6025C11.2375 12.6485 11.2395 12.8085 11.3655 12.9546C11.5655 13.2206 11.9815 13.3846 12.3896 13.2826C13.0736 13.0366 13.4696 12.5705 13.8697 12.0525C13.9257 11.9725 14.0157 11.9045 14.0997 11.9685C14.3737 12.5845 15.1698 13.0246 16.1958 13.0686C16.4359 12.7805 16.3218 12.6385 16.2258 12.5785C16.1958 12.5585 15.7158 12.3705 15.6398 12.1845C15.5938 12.0125 15.7078 11.8585 15.9358 11.7445C16.5959 11.6645 17.2439 11.5745 17.872 11.3724C17.878 11.1604 18.002 10.8464 18.086 10.7084C18.146 10.6144 18.18 10.6044 18.194 10.5924V10.5884H18.198V10.5824V10.5624L18.09 10.4984L15.9838 10.4904C15.9578 10.4804 15.9398 10.4704 15.9278 10.4604L15.9238 10.4544C15.9238 10.4544 15.9198 10.4544 15.9198 10.4504C15.9198 10.4464 15.9158 10.4464 15.9158 10.4464V10.4444V10.4404V10.4364L15.9198 10.4304C15.9298 10.4184 15.9558 10.4044 15.9858 10.3904C16.4899 10.3244 17.3819 10.1783 17.4419 9.32028C17.4319 8.87225 17.2499 8.58023 16.7019 8.50022C16.2978 8.53023 16.0098 8.92025 16.0558 9.34829C16.0358 9.46229 16.0958 9.68831 15.9758 9.71431C15.2038 9.78632 14.3597 10.2704 14.3317 10.6184H14.3277H14.3237H14.3197C14.3197 10.6224 14.3137 10.6224 14.3137 10.6224H14.3057H14.3017H14.2937C14.2437 10.6064 14.1797 10.5224 14.1897 10.4084C14.1597 9.80832 13.9637 9.12827 13.6596 8.60823C13.5496 8.49822 13.4996 8.45422 13.4716 8.44822H13.4656H13.4596H13.4536ZM15.4698 8.76424C15.4298 8.77224 15.3838 8.80825 15.3698 8.86825C15.3598 8.90825 15.3898 8.97226 15.3538 8.99226C15.3338 9.01226 15.2538 9.00026 15.2578 8.89225C15.2578 8.85825 15.2318 8.82025 15.2178 8.79824C15.2018 8.78824 15.1918 8.78624 15.1658 8.78624C15.1318 8.78624 15.1298 8.79424 15.1118 8.82225C15.1018 8.85025 15.0918 8.88225 15.0918 8.91225C15.0878 8.95226 15.0717 8.96426 15.0457 8.96826C15.0137 8.96826 15.0217 8.97426 14.9957 8.95826C14.9797 8.94226 14.9597 8.93426 14.9597 8.90625C14.9597 8.87625 14.9537 8.82625 14.9457 8.80625C14.9317 8.79224 14.9097 8.78624 14.8857 8.77824C14.7517 8.77824 14.7457 8.92826 14.7517 8.98626C14.7417 8.99626 14.7357 9.26628 14.9157 9.34229C15.1558 9.45829 15.7358 9.39029 15.5958 9.01626C15.5958 8.98226 15.5858 8.86625 15.5838 8.83625C15.5578 8.77624 15.5118 8.75624 15.4678 8.76224L15.4698 8.76424ZM23.6004 9.09827H23.5804C23.5804 9.09827 22.4563 9.89833 22.4303 9.92633C22.3183 10.0263 22.3743 10.3724 22.4303 10.3324C22.5103 10.3624 23.6404 9.5963 23.6184 9.5063C23.6684 9.5103 23.6924 9.11227 23.5984 9.09627L23.6004 9.09827ZM16.5319 9.21828C16.5759 9.21228 16.6359 9.22828 16.6919 9.25828C16.7779 9.31028 16.8319 9.38229 16.8219 9.43829V9.44629C16.8179 9.44629 16.8179 9.44629 16.8179 9.45029V9.45429C16.8179 9.45429 16.8139 9.45429 16.8139 9.45829C16.8139 9.46229 16.8079 9.46629 16.8039 9.47029C16.7639 9.5103 16.6719 9.5023 16.5839 9.45029C16.4999 9.40429 16.4499 9.33028 16.4539 9.27828V9.27228L16.4639 9.25228C16.4639 9.25228 16.4639 9.24828 16.4679 9.24628L16.4779 9.23428C16.4919 9.22428 16.5099 9.21428 16.5319 9.21428V9.21828ZM6.69513 9.41829C6.11509 9.43029 5.26102 10.1823 5.23902 10.5984L7.07916 9.71831C6.97915 9.5663 7.07316 9.43029 6.69513 9.41829ZM8.58127 9.67831C8.63727 9.68231 8.69728 9.71031 8.72928 9.79032C8.75728 9.86432 8.72928 9.94033 8.69528 9.97833V9.98433C8.66727 10.0163 8.58327 10.0043 8.52126 10.0043C8.44726 10.0003 8.41126 9.98833 8.36725 9.92833C8.34325 9.85832 8.40726 9.79232 8.43726 9.74432L8.45126 9.72431C8.47126 9.70431 8.51126 9.68831 8.55127 9.68431L8.57727 9.68031L8.58127 9.67831ZM23.3824 9.91233C23.2764 9.92433 23.1784 10.0223 23.2224 10.1783C23.1944 10.2704 23.3624 10.5924 23.4084 10.7624C23.4484 10.8824 23.3564 11.2284 23.4384 11.2624C23.5144 11.3024 23.7124 11.0624 23.7064 10.7544C23.7264 10.5944 23.6504 10.0143 23.4524 9.91833C23.4284 9.91233 23.4064 9.91033 23.3824 9.91233ZM10.8134 10.4804C10.7214 10.4864 10.6394 10.5344 10.6774 10.6644C10.6714 10.7564 10.9374 10.8704 10.9514 11.0844C10.9874 11.1764 10.8914 11.4644 10.9714 11.4884C11.0435 11.5184 11.1435 11.2884 11.1815 11.0804C11.2015 10.9644 11.0895 10.5604 10.9014 10.4864C10.8714 10.4784 10.8414 10.4764 10.8114 10.4784L10.8134 10.4804ZM14.5737 10.9924H14.5977C14.8337 11.0564 15.1778 11.0644 15.4778 11.0924C15.7238 11.1124 15.8438 11.3004 15.6178 11.3824C15.3898 11.4584 15.1718 11.5224 15.1718 11.8465C15.1998 12.0065 15.1918 12.0905 15.1678 12.1265C15.1678 12.1325 15.1598 12.1385 15.1598 12.1385C15.1598 12.1385 15.1598 12.1425 15.1558 12.1425V12.1465H15.1498L15.1358 12.1525H15.1258C15.0717 12.1625 14.9937 12.1125 14.9357 12.0805C14.7957 11.9805 14.4057 11.7405 14.3497 11.2204C14.3417 11.1004 14.4297 11.0004 14.5697 10.9904L14.5737 10.9924ZM5.38503 11.3924C5.37103 11.3924 5.34503 11.4364 5.30503 11.4864C4.957 12.0365 4.925 12.8585 5.11701 13.1066C5.21702 13.2206 5.38503 13.2726 5.50904 13.2366C5.72906 13.1426 5.82306 12.7005 5.76906 12.5405C5.69905 12.4265 5.64105 12.4085 5.56905 12.5045C5.41503 12.8145 5.34903 12.6005 5.33903 12.4245C5.31503 12.0985 5.34703 11.7945 5.38303 11.5545C5.40303 11.4344 5.40303 11.3884 5.38303 11.3884L5.38503 11.3924ZM17.1799 12.1165C17.1539 12.1165 17.1279 12.1205 17.0999 12.1365C17.0939 12.1365 16.8519 12.2965 16.7739 12.4125C16.7259 12.4485 16.7339 12.4785 16.7459 12.5425C16.7819 12.6285 16.8459 12.6025 16.9219 12.5625C17.0219 12.5465 17.0679 12.6125 17.0619 12.7305C17.0159 12.8805 17.0819 12.9346 17.0819 12.9446C17.0819 12.9526 17.1759 13.0346 17.2879 12.9706C17.5219 12.8805 17.6679 12.7905 17.998 12.7205C18.084 12.7205 18.078 12.4885 17.942 12.4805C17.7619 12.4885 17.6019 12.5005 17.4219 12.6405C17.3119 12.6645 17.2939 12.5965 17.2679 12.5365C17.2399 12.3885 17.3319 12.2845 17.3119 12.1725C17.3159 12.1785 17.2559 12.1245 17.1779 12.1205L17.1799 12.1165ZM24.7325 12.3965L24.5725 12.4125C24.5005 12.4265 24.4764 12.4585 24.4624 12.5465C24.4684 12.6765 24.5485 12.6705 24.6325 12.7225C24.6805 12.7825 24.7125 12.8385 24.6285 12.9426C24.5485 13.0126 24.4944 13.0526 24.4144 13.1226C24.3804 13.1866 24.3544 13.2826 24.4704 13.3146C24.6805 13.3746 25.1665 13.0586 25.1665 13.0546C25.2465 12.9946 25.2185 12.8805 25.2125 12.8805C25.1645 12.8285 25.0605 12.8605 24.9925 12.8505C24.9585 12.8505 24.8525 12.8345 24.9005 12.7385C24.9445 12.6785 24.9605 12.6445 24.9905 12.5705C25.0205 12.4985 24.9905 12.4505 24.8745 12.4105C24.8145 12.3985 24.7745 12.3945 24.7285 12.3965H24.7325Z" fill="white"/>
<path d="M24.6671 16.3006H24.3733H22.6105V15.9028C22.6105 15.6829 22.479 15.5049 22.3167 15.5049C22.1544 15.5049 22.0229 15.6828 22.0229 15.9028V16.3006H6.45117C7.03874 17.0963 8.21395 17.4943 9.09542 17.4943C9.72757 17.4943 17.6129 17.4943 22.0229 17.4943V18.2899C22.0229 18.5098 22.1544 18.6878 22.3167 18.6878H24.6671C25.1532 18.6878 25.5486 18.1524 25.5486 17.4942C25.5486 16.8359 25.1532 16.3006 24.6671 16.3006ZM24.6671 17.892H22.6104V17.4942C24.0264 17.4942 24.9609 17.4942 24.9609 17.4942L24.9081 17.28C24.9387 17.3427 24.9609 17.4134 24.9609 17.4942C24.9609 17.7138 24.8291 17.892 24.6671 17.892Z" fill="white"/>
</g>
<defs>
<clipPath id="clip0_1108_23228">
<path d="M0 4.5C0 2.29086 1.79086 0.5 4 0.5H28C30.2091 0.5 32 2.29086 32 4.5V19.5C32 21.7091 30.2091 23.5 28 23.5H4C1.79086 23.5 0 21.7091 0 19.5V4.5Z" fill="white"/>
</clipPath>
</defs>
</svg>
