<svg width="27" height="24" viewBox="0 0 27 24" fill="none" xmlns="http://www.w3.org/2000/svg">
<path d="M1.53444 23.2894C1.23484 22.9855 1.04095 22.5932 0.981382 22.1706C0.92182 21.7479 0.999746 21.3173 1.20366 20.9422L5.93744 12.0022L1.20716 3.06405C1.00359 2.68901 0.925948 2.25843 0.98567 1.8358C1.04539 1.41318 1.23932 1.02087 1.53886 0.716722L1.56565 0.689932C1.85888 0.391174 2.23876 0.192376 2.65133 0.121774C3.0639 0.0511701 3.48817 0.112354 3.86388 0.296635L25.3909 10.1752C25.3974 10.178 25.4037 10.1812 25.4096 10.185C25.7495 10.3507 26.0359 10.6085 26.2365 10.929C26.437 11.2496 26.5435 11.62 26.5439 11.9981C26.5443 12.3762 26.4385 12.747 26.2387 13.068C26.0388 13.3891 25.7529 13.6477 25.4134 13.8144L25.3946 13.8242L3.8593 23.7086C3.47765 23.8958 3.04617 23.9562 2.62789 23.8807C2.20961 23.8053 1.82647 23.5981 1.53444 23.2894Z" fill="#F19B5A"/>
</svg>
