<svg width="285" height="182" viewBox="0 0 285 182" fill="none" xmlns="http://www.w3.org/2000/svg">
<g clip-path="url(#clip0_44_19244)">
<path d="M59.5312 72.8731C60.8665 72.8731 61.5898 72.104 61.5898 70.7856V56.0085C61.5898 48.8672 65.3732 45.1317 72.6061 45.1317H87.6282C88.9635 45.1317 89.7425 44.4176 89.7425 43.0992C89.7425 41.7808 88.9635 41.0667 87.6282 41.0667H72.4948C62.647 41.0667 57.4727 46.1205 57.4727 55.7888V70.7856C57.4727 72.104 58.1959 72.8731 59.5312 72.8731ZM158.622 72.8731C159.957 72.8731 160.68 72.104 160.68 70.7856V55.7888C160.68 46.2304 155.562 41.0667 145.714 41.0667H130.525C129.19 41.0667 128.411 41.7808 128.411 43.0992C128.411 44.4176 129.19 45.1317 130.525 45.1317H145.547C152.557 45.1317 156.563 48.8672 156.563 56.0085V70.7856C156.563 72.104 157.287 72.8731 158.622 72.8731ZM104.542 99.4058H105.043C109.549 99.4058 111.831 97.2085 111.831 92.704V75.8395C111.831 74.576 111.219 73.9717 109.939 73.9717C108.715 73.9717 108.047 74.576 108.047 75.8395V93.1984C108.047 94.6816 106.823 95.6155 105.599 95.6155H103.708C102.65 95.6155 101.871 96.3845 101.871 97.4282C101.871 98.7466 102.706 99.4058 104.542 99.4058ZM89.0748 86.7712C90.7439 86.7712 91.8011 85.7275 91.8011 84.0795V76.7733C91.8011 75.0704 90.7439 74.0266 89.0748 74.0266C87.4613 74.0266 86.4042 75.1253 86.4042 76.7733V84.0795C86.4042 85.7275 87.4613 86.7712 89.0748 86.7712ZM128.578 86.7712C130.191 86.7712 131.248 85.7275 131.248 84.0795V76.7733C131.248 75.1253 130.191 74.0266 128.578 74.0266C126.908 74.0266 125.796 75.0704 125.796 76.7733V84.0795C125.796 85.7275 126.908 86.7712 128.578 86.7712ZM108.604 116.215C114.724 116.215 120.844 113.689 125.351 109.239C125.684 108.964 126.018 108.47 126.018 107.756C126.018 106.657 125.184 105.943 124.182 105.943C123.57 105.943 123.069 106.108 122.346 106.877C119.008 110.173 113.834 112.535 108.604 112.535C103.374 112.535 98.255 110.173 94.8611 106.877C94.1935 106.163 93.6927 105.943 93.0251 105.943C92.0236 105.943 91.189 106.657 91.189 107.756C91.189 108.415 91.5229 108.909 91.8567 109.239C96.2521 113.743 102.483 116.215 108.604 116.215ZM72.4948 142.968H87.6282C88.9635 142.968 89.7425 142.254 89.7425 140.935C89.7425 139.617 88.9635 138.903 87.6282 138.903H72.6061C65.3732 138.903 61.5898 135.167 61.5898 127.971V113.249C61.5898 111.931 60.8665 111.107 59.5312 111.107C58.1959 111.107 57.4727 111.931 57.4727 113.249V128.191C57.4727 137.914 62.647 142.968 72.4948 142.968ZM130.525 142.968H145.714C155.562 142.968 160.68 137.749 160.68 128.191V113.249C160.68 111.931 159.957 111.107 158.622 111.107C157.287 111.107 156.563 111.931 156.563 113.249V127.971C156.563 135.167 152.557 138.903 145.547 138.903H130.525C129.19 138.903 128.411 139.617 128.411 140.935C128.411 142.254 129.19 142.968 130.525 142.968Z" fill="#F2F3F3"/>
</g>
<g clip-path="url(#clip1_44_19244)">
<g clip-path="url(#clip2_44_19244)">
<path d="M215.254 52.5096C214.84 52.5096 214.426 52.4061 214.064 52.1991C204.131 47.0773 195.543 44.9044 185.247 44.9044C175.004 44.9044 165.277 47.336 156.431 52.1991C155.189 52.8717 153.637 52.4061 152.913 51.1644C152.24 49.9228 152.706 48.319 153.947 47.6464C163.57 42.4211 174.124 39.7308 185.247 39.7308C196.267 39.7308 205.89 42.1624 216.444 47.5947C217.737 48.2672 218.203 49.8193 217.53 51.061C217.065 51.9922 216.185 52.5096 215.254 52.5096ZM141.22 79.6708C140.703 79.6708 140.186 79.5156 139.72 79.2052C138.53 78.3774 138.271 76.7736 139.099 75.5837C144.221 68.3407 150.74 62.6498 158.5 58.6661C174.745 50.2849 195.543 50.2332 211.84 58.6144C219.6 62.598 226.119 68.2372 231.24 75.4285C232.068 76.5667 231.81 78.2222 230.62 79.05C229.43 79.8778 227.826 79.6191 226.998 78.4292C222.342 71.9105 216.444 66.7886 209.46 63.2189C194.612 55.6137 175.625 55.6137 160.828 63.2706C153.792 66.8921 147.894 72.0657 143.238 78.5844C142.824 79.3087 142.048 79.6708 141.22 79.6708ZM173.555 142.116C172.883 142.116 172.21 141.857 171.744 141.34C167.243 136.839 164.812 133.942 161.345 127.682C157.776 121.318 155.913 113.558 155.913 105.228C155.913 89.8628 169.054 77.3427 185.196 77.3427C201.337 77.3427 214.478 89.8628 214.478 105.228C214.478 106.677 213.34 107.815 211.891 107.815C210.443 107.815 209.304 106.677 209.304 105.228C209.304 92.7082 198.492 82.5163 185.196 82.5163C171.9 82.5163 161.087 92.7082 161.087 105.228C161.087 112.678 162.742 119.559 165.898 125.147C169.209 131.096 171.486 133.631 175.469 137.667C176.452 138.701 176.452 140.305 175.469 141.34C174.9 141.857 174.228 142.116 173.555 142.116ZM210.65 132.545C204.493 132.545 199.061 130.993 194.612 127.94C186.903 122.715 182.298 114.23 182.298 105.228C182.298 103.78 183.437 102.641 184.885 102.641C186.334 102.641 187.472 103.78 187.472 105.228C187.472 112.523 191.197 119.404 197.509 123.646C201.182 126.13 205.476 127.319 210.65 127.319C211.891 127.319 213.961 127.164 216.03 126.802C217.427 126.543 218.772 127.475 219.031 128.923C219.289 130.32 218.358 131.665 216.91 131.924C213.961 132.493 211.374 132.545 210.65 132.545ZM200.251 143.202C200.044 143.202 199.785 143.151 199.578 143.099C191.352 140.822 185.972 137.77 180.332 132.234C173.09 125.043 169.106 115.472 169.106 105.228C169.106 96.8471 176.245 90.018 185.04 90.018C193.836 90.018 200.975 96.8471 200.975 105.228C200.975 110.764 205.786 115.265 211.736 115.265C217.686 115.265 222.497 110.764 222.497 105.228C222.497 85.7239 205.683 69.8928 184.989 69.8928C170.296 69.8928 156.844 78.067 150.791 90.7423C148.774 94.9329 147.739 99.8478 147.739 105.228C147.739 109.264 148.101 115.627 151.205 123.905C151.723 125.25 151.05 126.75 149.705 127.216C148.36 127.733 146.86 127.009 146.394 125.716C143.859 118.938 142.617 112.213 142.617 105.228C142.617 99.02 143.807 93.3808 146.135 88.4659C153.016 74.0316 168.278 64.6675 184.989 64.6675C208.528 64.6675 227.671 82.8267 227.671 105.177C227.671 113.558 220.531 120.387 211.736 120.387C202.941 120.387 195.801 113.558 195.801 105.177C195.801 99.6408 190.99 95.1398 185.04 95.1398C179.091 95.1398 174.279 99.6408 174.279 105.177C174.279 114.023 177.694 122.301 183.954 128.509C188.869 133.373 193.577 136.063 200.872 138.08C202.268 138.443 203.044 139.891 202.682 141.236C202.424 142.426 201.337 143.202 200.251 143.202Z" fill="#F2F3F3"/>
</g>
</g>
<line x1="143.5" y1="49" x2="143.5" y2="133" stroke="#F2F3F3" stroke-width="3"/>
<defs>
<clipPath id="clip0_44_19244">
<rect width="110" height="181" fill="white"/>
</clipPath>
<clipPath id="clip1_44_19244">
<rect width="110.133" height="181.067" fill="white" transform="translate(174)"/>
</clipPath>
<clipPath id="clip2_44_19244">
<rect width="119.467" height="145.6" fill="white" transform="translate(112.4 18.6666)"/>
</clipPath>
</defs>
</svg>
