<svg width="23" height="22" viewBox="0 0 23 22" fill="none" xmlns="http://www.w3.org/2000/svg">
<g id="elements">
<path id="Vector (Stroke)" fill-rule="evenodd" clip-rule="evenodd" d="M10.375 2.15909C9.70529 2.15909 9.0597 2.44018 7.21745 3.31292L4.36928 4.6622C3.55859 5.04626 3.0507 5.28957 2.73235 5.5C3.0507 5.71043 3.55859 5.95374 4.36928 6.3378L5.44362 6.84675L13.0898 3.10386C11.5809 2.39461 10.988 2.15909 10.375 2.15909ZM15.3064 4.15325L7.6602 7.89613C9.16915 8.60539 9.76197 8.84091 10.375 8.84091C11.0447 8.84091 11.6903 8.55982 13.5325 7.68708L16.3807 6.3378C17.1914 5.95374 17.6993 5.71043 18.0177 5.5C17.6993 5.28957 17.1914 5.04626 16.3807 4.6622L15.3064 4.15325ZM6.56588 1.50066C8.13051 0.7585 9.20254 0.25 10.375 0.25C11.5475 0.25 12.6195 0.758501 14.1841 1.50066C14.2492 1.53152 14.3151 1.56279 14.3819 1.59444L17.2962 2.97504C18.021 3.31831 18.66 3.62098 19.1096 3.91829C19.5597 4.21596 20.125 4.7042 20.125 5.5C20.125 6.2958 19.5597 6.78404 19.1096 7.08171C18.66 7.37902 18.021 7.68169 17.2962 8.02496L14.3819 9.40556C14.3151 9.43721 14.2492 9.46848 14.1841 9.49934C12.6195 10.2415 11.5475 10.75 10.375 10.75C9.20254 10.75 8.13052 10.2415 6.56589 9.49934C6.50082 9.46848 6.4349 9.43721 6.36809 9.40556L3.51991 8.05627C3.49779 8.04579 3.47575 8.03535 3.45378 8.02495C2.72902 7.68168 2.09 7.37902 1.64041 7.08171C1.19027 6.78404 0.625 6.2958 0.625 5.5C0.625 4.7042 1.19027 4.21596 1.64041 3.91829C2.09 3.62098 2.72902 3.31832 3.45378 2.97505C3.47575 2.96465 3.49779 2.95421 3.51991 2.94373L6.36809 1.59444C6.4349 1.56279 6.50081 1.53153 6.56588 1.50066Z" fill="#D92D20"/>
<path id="Subtract" fill-rule="evenodd" clip-rule="evenodd" d="M20.0946 11.7901C20.125 11.7279 20.125 11.6483 20.125 11.4892L20.125 5.50122C20.125 5.47193 20.1233 5.44304 20.1201 5.41462C20.1043 5.27744 20.0964 5.20885 19.9605 5.13421C19.8245 5.05957 19.7255 5.10768 19.5273 5.20389L16.6436 6.60395L13.7224 8.01749C11.8546 8.92132 11.1326 9.25122 10.375 9.25122C9.61741 9.25122 8.89544 8.92132 7.0276 8.01749L4.1064 6.60395L1.22271 5.20389C1.02454 5.10768 0.925457 5.05957 0.78953 5.13421C0.653604 5.20885 0.645718 5.27744 0.629946 5.41462C0.626679 5.44304 0.625 5.47193 0.625 5.50122L0.625 16.1625C0.625 17.2829 1.44234 18.0281 2.44833 18.6317C3.46672 19.2428 5.17603 19.9649 7.06913 20.7646C8.48817 21.3645 9.40296 21.7512 10.375 21.7512C11.054 21.7512 11.7051 21.5625 12.5196 21.2442C12.7666 21.1477 12.89 21.0995 12.9426 21.0064C12.9951 20.9134 12.9672 20.7515 12.9114 20.4277C12.7782 19.6544 13.0102 18.8305 13.6072 18.2334L14.4152 17.4254C14.6152 17.2254 14.7152 17.1254 14.7152 17.0012C14.7152 16.8769 14.6152 16.7769 14.4152 16.5769L13.6072 15.769C12.6309 14.7926 12.6309 13.2097 13.6072 12.2334C14.5835 11.2571 16.1665 11.2571 17.1428 12.2334L17.9507 13.0414C18.1507 13.2414 18.2507 13.3414 18.375 13.3414C18.4993 13.3414 18.5993 13.2414 18.7993 13.0414L19.6072 12.2334C19.681 12.1597 19.7581 12.0915 19.8383 12.0289L19.8383 12.0289C19.9889 11.9112 20.0643 11.8524 20.0946 11.7901ZM4.71057 10.3294C4.34009 10.1442 3.88959 10.2943 3.70434 10.6648C3.5191 11.0353 3.66927 11.4858 4.03975 11.671L6.03975 12.671C6.41024 12.8563 6.86074 12.7061 7.04598 12.3356C7.23123 11.9651 7.08106 11.5146 6.71057 11.3294L4.71057 10.3294Z" fill="#D92D20"/>
<path id="Vector (Stroke)_2" fill-rule="evenodd" clip-rule="evenodd" d="M22.0821 13.2929C22.4726 13.6834 22.4726 14.3166 22.0821 14.7071L19.7892 17L22.0821 19.2929C22.4726 19.6834 22.4726 20.3166 22.0821 20.7071C21.6916 21.0976 21.0584 21.0976 20.6679 20.7071L18.375 18.4142L16.0821 20.7071C15.6916 21.0976 15.0584 21.0976 14.6679 20.7071C14.2774 20.3166 14.2774 19.6834 14.6679 19.2929L16.9608 17L14.6679 14.7071C14.2774 14.3166 14.2774 13.6834 14.6679 13.2929C15.0584 12.9024 15.6916 12.9024 16.0821 13.2929L18.375 15.5858L20.6679 13.2929C21.0584 12.9024 21.6916 12.9024 22.0821 13.2929Z" fill="#D92D20"/>
</g>
</svg>
