<svg width="17" height="16" viewBox="0 0 17 16" fill="none" xmlns="http://www.w3.org/2000/svg">
<g id="Step 3 Icon">
<path id="Vector 1973" d="M3.81152 6.66683L4.73101 7.40242C5.14889 7.73672 5.75589 7.68279 6.10828 7.28006L7.81152 5.3335" stroke="#FF974A" stroke-width="1.5" stroke-linecap="round" stroke-linejoin="round"/>
<path id="Vector" d="M9.81152 12.6667V4.66667M9.81152 12.6667H11.1449M9.81152 12.6667H6.47819M9.81152 4.66667C9.81152 3.19391 8.61762 2 7.14486 2H4.47819C3.00543 2 1.81152 3.19391 1.81152 4.66667V10C1.81152 11.2435 2.66263 12.2882 3.81409 12.5833M9.81152 4.66667H11.9509C12.2897 4.66667 12.6157 4.7956 12.8628 5.02728L14.7234 6.77159C14.9923 7.02366 15.1449 7.37576 15.1449 7.74431V11.3333C15.1449 12.0697 14.5479 12.6667 13.8115 12.6667M13.8115 12.6667C13.8115 13.403 13.2146 14 12.4782 14C11.7418 14 11.1449 13.403 11.1449 12.6667M13.8115 12.6667C13.8115 11.9303 13.2146 11.3333 12.4782 11.3333C11.7418 11.3333 11.1449 11.9303 11.1449 12.6667M6.47819 12.6667C6.47819 13.403 5.88124 14 5.14486 14C4.40848 14 3.81152 13.403 3.81152 12.6667C3.81152 12.6387 3.81239 12.6109 3.81409 12.5833M6.47819 12.6667C6.47819 11.9303 5.88124 11.3333 5.14486 11.3333C4.43647 11.3333 3.85711 11.8858 3.81409 12.5833" stroke="#FF974A" stroke-width="1.5"/>
</g>
</svg>
