<svg width="153" height="152" viewBox="0 0 153 152" fill="none" xmlns="http://www.w3.org/2000/svg">
<g clip-path="url(#clip0_1108_23875)">
<path d="M103.615 108.88L108.085 106.3V111.46H112.745V106.3L117.215 108.88L119.545 104.84L115.075 102.26L119.545 99.6801L117.215 95.6401L112.745 98.2201V93.0601H108.085V98.2201L103.615 95.6401L101.285 99.6801L105.745 102.26L101.285 104.84L103.615 108.88Z" fill="#E18541"/>
<path d="M81.0038 108.88L85.4738 106.3V111.46H90.1338V106.3L94.6038 108.88L96.9338 104.84L92.4738 102.26L96.9338 99.6801L94.6038 95.6401L90.1338 98.2201V93.0601H85.4738V98.2201L81.0038 95.6401L78.6738 99.6801L83.1338 102.26L78.6738 104.84L81.0038 108.88Z" fill="#E18541"/>
<path d="M58.3945 108.88L62.8645 106.3V111.46H67.5345V106.3L71.9944 108.88L74.3245 104.84L69.8645 102.26L74.3245 99.6801L71.9944 95.6401L67.5345 98.2201V93.0601H62.8645V98.2201L58.3945 95.6401L56.0645 99.6801L60.5345 102.26L56.0645 104.84L58.3945 108.88Z" fill="#E18541"/>
<path d="M35.7951 108.88L40.2551 106.3V111.46H44.9251V106.3L49.3951 108.88L51.7251 104.84L47.2551 102.26L51.7251 99.6801L49.3951 95.6401L44.9251 98.2201V93.0601H40.2551V98.2201L35.7951 95.6401L33.4551 99.6801L37.9251 102.26L33.4551 104.84L35.7951 108.88Z" fill="#E18541"/>
<path d="M39.6744 119.95H113.324C123.074 119.95 131.014 112.02 131.014 102.26C131.014 92.4999 123.084 84.5699 113.324 84.5699H108.434V63.2899C108.434 59.8599 105.654 57.0799 102.224 57.0799H100.524C100.524 52.1699 100.534 47.1999 100.534 42.2599C100.534 35.7199 97.8144 30.0499 92.8744 26.2999C88.6244 23.0799 82.9744 21.3799 76.5244 21.3799H76.5044C62.1444 21.3799 52.5044 29.7899 52.5044 42.2799C52.5044 47.1999 52.4944 52.1699 52.4744 57.0799H50.7744C47.3444 57.0799 44.5644 59.8599 44.5644 63.2899V84.5699H39.6744C29.9244 84.5699 21.9844 92.4999 21.9844 102.26C21.9844 112.02 29.9144 119.95 39.6744 119.95ZM64.5844 42.2799C64.5844 39.4799 65.5244 37.4099 67.4644 35.9399C69.5544 34.3499 72.7744 33.4699 76.5144 33.4599H76.5244C80.2644 33.4599 83.4744 34.3399 85.5744 35.9299C87.5144 37.3999 88.4544 39.4699 88.4544 42.2599C88.4544 47.1999 88.4544 52.1699 88.4444 57.0799H64.5544C64.5744 52.1699 64.5944 47.1999 64.5844 42.2799ZM39.6744 88.3799H113.324C120.974 88.3799 127.204 94.5999 127.204 102.26C127.204 109.92 120.984 116.14 113.324 116.14H39.6744C32.0244 116.14 25.7944 109.92 25.7944 102.26C25.7944 94.5999 32.0244 88.3799 39.6744 88.3799Z" fill="#E18541"/>
<path d="M138.835 32.5301C138.235 31.6701 137.045 31.4501 136.185 32.0501C135.325 32.6501 135.105 33.8401 135.705 34.7001C154.125 61.1901 152.585 97.0501 131.965 121.89C111.345 146.74 76.385 154.85 46.965 141.64C46.015 141.21 45.065 140.75 44.125 140.28C39.485 137.93 35.105 135.08 31.085 131.82L36.795 131.29C37.845 131.19 38.615 130.26 38.515 129.22C38.415 128.17 37.495 127.4 36.445 127.5L26.135 128.46C25.085 128.56 24.315 129.49 24.415 130.53L25.375 140.84C25.465 141.83 26.295 142.57 27.275 142.57C27.335 142.57 27.395 142.57 27.455 142.57C28.505 142.47 29.275 141.54 29.175 140.5L28.645 134.75C32.885 138.2 37.525 141.21 42.425 143.7C43.405 144.19 44.405 144.67 45.405 145.13C55.345 149.6 65.895 151.75 76.345 151.75C98.465 151.75 120.175 142.11 134.915 124.34C156.625 98.1801 158.245 60.4301 138.845 32.5401L138.835 32.5301Z" fill="#E18541"/>
<path d="M106.054 10.1199C107.004 10.5299 107.944 10.9799 108.884 11.4599C113.534 13.8199 117.924 16.6599 121.934 19.9299L116.204 20.4599C115.154 20.5599 114.384 21.4899 114.484 22.5299C114.574 23.5199 115.404 24.2599 116.384 24.2599C116.444 24.2599 116.504 24.2599 116.564 24.2599L126.874 23.2999C127.924 23.1999 128.694 22.2699 128.594 21.2299L127.634 10.9199C127.534 9.86991 126.614 9.08991 125.564 9.19991C124.514 9.29991 123.744 10.2299 123.844 11.2699L124.374 16.9899C120.134 13.5499 115.514 10.5399 110.614 8.05991C109.604 7.54991 108.594 7.05991 107.604 6.62991C76.6138 -7.30009 39.8138 1.23991 18.1038 27.4099C-3.6062 53.5699 -5.2262 91.3199 14.1738 119.21C14.5438 119.74 15.1338 120.03 15.7438 120.03C16.1238 120.03 16.4938 119.92 16.8338 119.69C17.6938 119.09 17.9138 117.9 17.3138 117.04C-1.1162 90.5399 0.413799 54.6899 21.0338 29.8399C41.6638 4.98991 76.6138 -3.12009 106.054 10.1199Z" fill="#E18541"/>
</g>
<defs>
<clipPath id="clip0_1108_23875">
<rect width="151.69" height="151.74" fill="white" transform="translate(0.654297)"/>
</clipPath>
</defs>
</svg>
