<svg width="21" height="22" viewBox="0 0 21 22" fill="none" xmlns="http://www.w3.org/2000/svg">
<g id="elements">
<path id="Vector 6663 (Stroke)" d="M20.8019 13.6251C21.0092 14.137 20.7621 14.72 20.2502 14.9272C19.8162 15.1029 19.2921 15.4928 18.7203 16.0659C18.1613 16.6262 17.6158 17.301 17.1312 17.9648C16.6487 18.626 16.2385 19.2596 15.9487 19.7289C15.8041 19.963 15.577 20.3523 15.4999 20.4845L15.499 20.4861C15.3143 20.8183 14.9572 21.0172 14.5775 20.9991C14.1978 20.9811 13.8612 20.7493 13.7088 20.4011C13.3182 19.5082 12.972 19.1647 12.8158 19.0457C12.7769 19.016 12.7481 18.999 12.731 18.99C12.2469 18.9201 11.875 18.5036 11.875 18.0003C11.875 17.448 12.3227 17.0003 12.875 17.0003C13.082 17.0003 13.2343 17.0478 13.3358 17.0809C13.5406 17.1478 13.7769 17.2636 14.0279 17.4548C14.2288 17.6079 14.4343 17.8054 14.6397 18.0587C14.891 17.6724 15.1871 17.236 15.5158 16.7857C16.0349 16.0745 16.6475 15.3118 17.3045 14.6533C17.9487 14.0077 18.6985 13.3977 19.4998 13.0733C20.0117 12.8661 20.5947 13.1131 20.8019 13.6251Z" fill="#079455"/>
<path id="Vector (Stroke)" fill-rule="evenodd" clip-rule="evenodd" d="M9.875 2.15909C9.20529 2.15909 8.5597 2.44018 6.71745 3.31292L3.86928 4.6622C3.05859 5.04626 2.5507 5.28957 2.23235 5.5C2.5507 5.71043 3.05859 5.95374 3.86928 6.3378L4.94362 6.84675L12.5898 3.10386C11.0809 2.39461 10.488 2.15909 9.875 2.15909ZM14.8064 4.15325L7.1602 7.89613C8.66915 8.60539 9.26197 8.84091 9.875 8.84091C10.5447 8.84091 11.1903 8.55982 13.0325 7.68708L15.8807 6.3378C16.6914 5.95374 17.1993 5.71043 17.5177 5.5C17.1993 5.28957 16.6914 5.04626 15.8807 4.6622L14.8064 4.15325ZM6.06588 1.50066C7.63051 0.7585 8.70254 0.25 9.875 0.25C11.0475 0.25 12.1195 0.758501 13.6841 1.50066C13.7492 1.53152 13.8151 1.56279 13.8819 1.59444L16.7962 2.97504C17.521 3.31831 18.16 3.62098 18.6096 3.91829C19.0597 4.21596 19.625 4.7042 19.625 5.5C19.625 6.2958 19.0597 6.78404 18.6096 7.08171C18.16 7.37902 17.521 7.68169 16.7962 8.02496L13.8819 9.40556C13.8151 9.43721 13.7492 9.46848 13.6841 9.49934C12.1195 10.2415 11.0475 10.75 9.875 10.75C8.70254 10.75 7.63052 10.2415 6.06589 9.49934C6.00082 9.46848 5.9349 9.43721 5.86809 9.40556L3.01991 8.05627C2.99779 8.04579 2.97575 8.03535 2.95378 8.02495C2.22902 7.68168 1.59 7.37902 1.14041 7.08171C0.690271 6.78404 0.125 6.2958 0.125 5.5C0.125 4.7042 0.690271 4.21596 1.14041 3.91829C1.59 3.62098 2.22902 3.31832 2.95378 2.97505C2.97575 2.96465 2.99779 2.95421 3.01991 2.94373L5.86809 1.59444C5.9349 1.56279 6.00081 1.53153 6.06588 1.50066Z" fill="#079455"/>
<path id="Subtract" fill-rule="evenodd" clip-rule="evenodd" d="M19.5681 11.4114C19.625 11.3327 19.625 11.2124 19.625 10.9718L19.625 5.50244C19.625 5.47315 19.6233 5.44426 19.6201 5.41584C19.6043 5.27866 19.5964 5.21007 19.4605 5.13543C19.3245 5.06079 19.2255 5.1089 19.0273 5.20511L16.1436 6.60518L13.2224 8.01871C11.3546 8.92254 10.6326 9.25244 9.875 9.25244C9.11741 9.25244 8.39544 8.92254 6.5276 8.01871L3.6064 6.60517L0.72271 5.20511C0.524541 5.1089 0.425457 5.06079 0.28953 5.13543C0.153604 5.21007 0.145718 5.27866 0.129946 5.41584C0.126679 5.44426 0.125 5.47315 0.125 5.50244L0.125 16.1637C0.125 17.2841 0.942343 18.0293 1.94833 18.6329C2.96672 19.244 4.67603 19.9661 6.56913 20.7658C7.98817 21.3657 8.90296 21.7524 9.875 21.7524C10.4941 21.7524 11.0899 21.5956 11.8076 21.3267C12.0798 21.2247 12.2159 21.1737 12.2632 21.0441C12.3106 20.9145 12.2425 20.7933 12.1063 20.5509C12.0935 20.5282 12.0812 20.5067 12.0694 20.4865L12.0693 20.4865C12.0318 20.4222 12.013 20.39 11.9795 20.3593C11.946 20.3287 11.9001 20.307 11.8083 20.2637L11.8083 20.2637C10.9609 19.8634 10.375 19.0021 10.375 18.0024C10.375 16.6217 11.4943 15.5024 12.875 15.5024C13.323 15.5024 13.6565 15.6098 13.8014 15.6571C13.8189 15.6629 13.8365 15.6688 13.8541 15.6748C14.1045 15.7611 14.2297 15.8043 14.3225 15.7762C14.4154 15.7481 14.4872 15.654 14.6307 15.4658C15.1062 14.8423 15.6524 14.1876 16.2426 13.596C16.9414 12.8957 17.8604 12.1208 18.937 11.685C18.9896 11.6638 19.0424 11.6444 19.0954 11.6269C19.3725 11.5357 19.5111 11.4901 19.5681 11.4114ZM4.21057 10.3306C3.84009 10.1454 3.38959 10.2955 3.20434 10.666C3.0191 11.0365 3.16927 11.487 3.53975 11.6723L5.53975 12.6723C5.91024 12.8575 6.36074 12.7073 6.54598 12.3368C6.73123 11.9664 6.58106 11.5159 6.21057 11.3306L4.21057 10.3306Z" fill="#079455"/>
</g>
</svg>
