<svg width="161" height="252" viewBox="0 0 161 252" fill="none" xmlns="http://www.w3.org/2000/svg">
<path d="M45.8677 172.62C46.078 172.338 46.7019 171.501 47.1059 170.966C47.9139 169.896 49.0843 168.362 50.523 166.518C53.4059 162.824 57.3407 157.921 61.5808 153.037C65.8496 148.121 70.2972 143.376 74.2168 139.912C76.1842 138.174 77.862 136.899 79.1962 136.095C79.8318 135.712 80.2582 135.516 80.4994 135.418C80.7407 135.516 81.1672 135.712 81.8029 136.095C83.137 136.899 84.8149 138.174 86.7823 139.913C90.702 143.376 95.1496 148.121 99.4185 153.037C103.659 157.921 107.594 162.824 110.476 166.518C111.915 168.362 114.324 171.55 115.132 172.62C117.315 175.584 121.489 176.218 124.453 174.034C127.418 171.851 128.049 167.674 125.865 164.709L125.85 164.69C124.992 163.553 122.467 160.21 120.988 158.315C118.018 154.509 113.929 149.412 109.486 144.296C105.073 139.212 100.179 133.957 95.6108 129.921C93.3341 127.909 90.981 126.059 88.6866 124.676C86.5751 123.403 83.6736 122 80.4994 122C77.3252 122 74.4239 123.403 72.3125 124.676C70.018 126.059 67.6649 127.909 65.3883 129.921C60.8197 133.957 55.9262 139.213 51.5127 144.296C47.0704 149.412 42.9817 154.509 40.0116 158.315C38.5239 160.222 37.3104 161.812 36.4663 162.93C36.0477 163.484 35.3724 164.39 35.1403 164.702L35.1344 164.71C32.951 167.674 33.5816 171.851 36.5463 174.035C39.5109 176.218 43.6843 175.585 45.8677 172.62Z" fill="#F19B5A"/>
<path d="M34.5498 218.34C35.6842 220.584 37.9849 221.999 40.4996 221.999H120.499C123.014 221.999 125.315 220.584 126.449 218.34C127.584 216.095 127.359 213.404 125.867 211.379L125.854 211.361C125.616 211.041 124.947 210.144 124.533 209.596C123.689 208.478 122.475 206.887 120.987 204.981C118.017 201.175 113.928 196.078 109.486 190.962C105.072 185.879 100.179 180.623 95.6103 176.587C93.3336 174.575 90.9807 172.725 88.6863 171.342C86.5748 170.069 83.6734 168.666 80.4992 168.666C77.325 168.666 74.4237 170.069 72.3123 171.342C70.0178 172.725 67.6648 174.575 65.3882 176.587C60.8196 180.623 55.9261 185.879 51.5126 190.962C47.0703 196.078 42.9815 201.175 40.0114 204.981C38.5237 206.888 37.3102 208.478 36.4661 209.596C36.0475 210.15 35.3722 211.056 35.1401 211.368L35.1343 211.376C33.643 213.401 33.4154 216.096 34.5498 218.34Z" fill="#F19B5A"/>
<path d="M45.8677 126.62C46.078 126.338 46.7019 125.501 47.1059 124.966C47.9139 123.896 49.0843 122.362 50.523 120.518C53.4059 116.824 57.3407 111.921 61.5808 107.037C65.8496 102.121 70.2972 97.3758 74.2168 93.9125C76.1842 92.1741 77.862 90.8991 79.1962 90.0948C79.8318 89.7117 80.2582 89.5159 80.4994 89.4177C80.7407 89.5159 81.1672 89.7117 81.8029 90.0949C83.137 90.8992 84.8149 92.1742 86.7823 93.9126C90.702 97.3758 95.1496 102.121 99.4185 107.037C103.659 111.921 107.594 116.824 110.476 120.518C111.915 122.362 114.324 125.55 115.132 126.62C117.315 129.584 121.489 130.218 124.453 128.034C127.418 125.851 128.049 121.674 125.865 118.709L125.85 118.69C124.992 117.553 122.467 114.21 120.988 112.315C118.018 108.509 113.929 103.412 109.486 98.2958C105.073 93.2125 100.179 87.9574 95.6108 83.9207C93.3341 81.9091 90.981 80.0592 88.6866 78.676C86.5751 77.4031 83.6736 76 80.4994 76C77.3252 76 74.4239 77.4031 72.3125 78.676C70.018 80.0592 67.6649 81.9091 65.3883 83.9208C60.8197 87.9575 55.9262 93.2126 51.5127 98.2959C47.0704 103.412 42.9817 108.509 40.0116 112.315C38.5239 114.222 37.3104 115.812 36.4663 116.93C36.0477 117.484 35.3724 118.39 35.1403 118.702L35.1344 118.71C32.951 121.674 33.5816 125.851 36.5463 128.035C39.5109 130.218 43.6843 129.585 45.8677 126.62Z" fill="#F19B5A"/>
</svg>
