<svg width="23" height="23" viewBox="0 0 23 23" fill="none" xmlns="http://www.w3.org/2000/svg">
<g id="elements">
<path id="Subtract" fill-rule="evenodd" clip-rule="evenodd" d="M8.90754 0.750001L14.0925 0.750001H14.0925H14.0926C14.76 0.749982 15.329 0.749966 15.7976 0.792743C16.2948 0.838131 16.7654 0.93733 17.2097 1.18596C17.6614 1.43878 17.9684 1.78011 18.225 2.17155C18.4595 2.52925 18.6836 2.98085 18.9369 3.49115L18.9369 3.49118L19.658 4.94411C19.7343 5.09777 19.7615 5.26125 19.7457 5.41879C19.7485 5.44539 19.75 5.4724 19.75 5.49976V9.82011C19.75 11.3608 19.75 12.5924 19.6214 13.5589C19.4885 14.5577 19.2061 15.3851 18.5567 16.0411C17.9063 16.6982 17.0841 16.9849 16.0918 17.1197C15.1336 17.2498 13.9131 17.2498 12.3893 17.2498H10.6107C9.08689 17.2498 7.86638 17.2498 6.90816 17.1197C5.91588 16.9849 5.09372 16.6982 4.4433 16.0411C3.79392 15.3851 3.51152 14.5577 3.3786 13.5589C3.24997 12.5924 3.24998 11.3608 3.25 9.82015V9.82014V9.82013V9.82011L3.25 5.49976C3.25 5.4724 3.25147 5.44539 3.25432 5.41879C3.23851 5.26124 3.26572 5.09776 3.34199 4.94411L4.04191 3.53391L4.06311 3.4912L4.06311 3.49119C4.31635 2.98088 4.54046 2.52926 4.77496 2.17155C5.03158 1.78011 5.33857 1.43878 5.79031 1.18596C6.23456 0.93733 6.70516 0.838131 7.20236 0.792743C7.67096 0.749966 8.23996 0.749982 8.90744 0.750001H8.90751H8.90754ZM17.2005 4.312L17.4178 4.74976L5.58225 4.74976L5.79952 4.312C6.08037 3.74615 6.25744 3.39275 6.42537 3.13659C6.5777 2.90422 6.68149 2.81817 6.7799 2.7631C6.88579 2.70383 7.0431 2.64909 7.38911 2.6175C7.75327 2.58426 8.2278 2.58326 8.95228 2.58326L14.0477 2.58326C14.7722 2.58326 15.2467 2.58426 15.6109 2.6175C15.9569 2.64909 16.1142 2.70383 16.2201 2.7631C16.3185 2.81817 16.4223 2.90422 16.5746 3.13659C16.7426 3.39275 16.9196 3.74615 17.2005 4.312ZM12.7498 7.49988H10.25C9.69772 7.49988 9.25 7.94759 9.25 8.49988C9.25 9.05216 9.69772 9.49988 10.25 9.49988L12.7498 9.49988C13.3021 9.49988 13.7498 9.05216 13.7498 8.49988C13.7498 7.94759 13.3021 7.49988 12.7498 7.49988Z" fill="#535862"/>
<path id="Vector 5361 (Stroke)" fill-rule="evenodd" clip-rule="evenodd" d="M22.25 21.5C22.25 19.7051 20.7949 18.25 19 18.25L4 18.25C2.20507 18.25 0.75 19.7051 0.75 21.5C0.75 21.9142 1.08579 22.25 1.5 22.25C1.91421 22.25 2.25 21.9142 2.25 21.5C2.25 20.5335 3.0335 19.75 4 19.75H5.75V21.5C5.75 21.9142 6.08579 22.25 6.5 22.25C6.91421 22.25 7.25 21.9142 7.25 21.5V19.75H10.75V21.5C10.75 21.9142 11.0858 22.25 11.5 22.25C11.9142 22.25 12.25 21.9142 12.25 21.5V19.75H15.75V21.5C15.75 21.9142 16.0858 22.25 16.5 22.25C16.9142 22.25 17.25 21.9142 17.25 21.5V19.75H19C19.9665 19.75 20.75 20.5335 20.75 21.5C20.75 21.9142 21.0858 22.25 21.5 22.25C21.9142 22.25 22.25 21.9142 22.25 21.5Z" fill="#535862"/>
</g>
</svg>
