<svg width="20" height="20" viewBox="0 0 20 20" fill="none" xmlns="http://www.w3.org/2000/svg">
<path d="M5.4883 13.7005L5.48831 13.7005C5.70109 13.9065 5.96503 14.1593 6.28006 14.4588L6.28067 14.4594L8.7855 16.8187L8.78588 16.819C9.48081 17.4699 10.5813 17.47 11.2764 16.8192C12.278 15.8815 13.0929 15.1141 13.721 14.5172L13.7215 14.5167L14.5732 13.7012L14.5739 13.7005C17.0867 11.2673 17.0867 7.31983 14.5739 4.88666C12.0643 2.45663 7.99785 2.45663 5.4883 4.88666C2.97549 7.31983 2.97549 11.2673 5.4883 13.7005Z" stroke="#717680" stroke-width="0.36"/>
<g clip-path="url(#clip0_597_30837)">
<path d="M12.9728 9.73008V8.649C12.9728 7.29456 12.9728 6.61734 12.638 6.1652C12.5845 6.09288 12.5255 6.02601 12.4617 5.96532C12.0627 5.58594 11.4652 5.58594 10.2701 5.58594C9.07499 5.58594 8.47744 5.58594 8.0785 5.96532C8.01469 6.02601 7.95568 6.09288 7.90214 6.1652C7.56738 6.61734 7.56738 7.29456 7.56738 8.649V9.73008C7.56738 11.0845 7.56738 11.7617 7.90214 12.2139C7.95568 12.2862 8.01469 12.3531 8.0785 12.4138C8.47744 12.7931 9.07499 12.7931 10.2701 12.7931C11.4652 12.7931 12.0627 12.7931 12.4617 12.4138C12.5255 12.3531 12.5845 12.2862 12.638 12.2139C12.9728 11.7617 12.9728 11.0845 12.9728 9.73008Z" stroke="#717680" stroke-width="1.5" stroke-linecap="round"/>
<path d="M11.3511 10.6319C11.3511 11.2289 10.8671 11.7129 10.27 11.7129C9.67298 11.7129 9.18896 11.2289 9.18896 10.6319C9.18896 10.0348 9.67298 9.55078 10.27 9.55078C10.8671 9.55078 11.3511 10.0348 11.3511 10.6319Z" stroke="#717680" stroke-width="1.5"/>
<path d="M7.56738 8.46875H12.9728" stroke="#717680" stroke-width="1.5" stroke-linecap="round"/>
</g>
<defs>
<clipPath id="clip0_597_30837">
<rect width="8.64865" height="8.64865" fill="white" transform="translate(5.9458 4.86523)"/>
</clipPath>
</defs>
</svg>
