<svg xmlns="http://www.w3.org/2000/svg" xmlns:xlink="http://www.w3.org/1999/xlink" width="102.182" height="133.335"
    viewBox="0 0 102.182 133.335">
    <defs>
        <clipPath id="clip-path">
            <rect id="Rectangle_2" data-name="Rectangle 2" width="64.997" height="77.647" fill="rgba(251,236,251,0.31)"
                stroke="#707070" stroke-linecap="round" stroke-linejoin="bevel" stroke-width="1" />
        </clipPath>
    </defs>
    <g id="ndf_device_1_" data-name="ndf device (1)" transform="translate(-13.272 -10.873)">
        <g id="Path_16" data-name="Path 16" transform="translate(11.937 10.162)" fill="#1d5d32" stroke-linecap="round"
            stroke-linejoin="bevel">
            <path
                d="M 52.44008255004883 132.5472106933594 C 52.43960952758789 132.5472106933594 52.43981170654297 132.5472106933594 52.43933868408203 132.5472106933594 C 48.58103561401367 132.5469818115234 44.93819046020508 130.8613433837891 42.17289733886719 127.7991485595703 L 42.16988372802734 127.7964401245117 L 42.11139297485352 127.731201171875 L 23.28675651550293 106.549201965332 L 23.27682876586914 106.5380249023438 L 23.27044105529785 106.5305480957031 C 20.92214965820312 103.8632354736328 18.92046928405762 101.5728454589844 17.32062911987305 99.72258758544922 C 13.42231941223145 95.2132568359375 10.23042869567871 90.04762268066406 7.833519458770752 84.36909484863281 C 5.523119449615479 78.89547729492188 3.992392301559448 73.04972839355469 3.283883333206177 66.99422454833984 C 2.58399224281311 61.01242065429688 2.703228712081909 54.97864151000977 3.638301372528076 49.06047821044922 C 4.587574005126953 43.05234909057617 6.354719638824463 37.31686019897461 8.890628814697266 32.01333236694336 C 11.22470188140869 27.13031387329102 13.98217391967773 22.87931251525879 17.32052040100098 19.01760482788086 C 22.04780960083008 13.54922199249268 27.56464767456055 9.312658309936523 33.71779251098633 6.425603866577148 C 36.68186569213867 5.034858703613281 39.78213882446289 3.971840381622314 42.93246459960938 3.266076803207397 C 46.05493927001953 2.566567659378052 49.25333786010742 2.211894989013672 52.43884658813477 2.211894989013672 C 55.62437438964844 2.211894989013672 58.82277297973633 2.566567659378052 61.94522857666016 3.266076803207397 C 65.09557342529297 3.971840381622314 68.19583129882812 5.034858703613281 71.15991973876953 6.425603866577148 C 77.31306457519531 9.312658309936523 82.82990264892578 13.54922199249268 87.55717468261719 19.01760482788086 C 92.27448272705078 24.47453117370605 95.92552185058594 30.83429527282715 98.40886688232422 37.92023849487305 C 100.8029708862305 44.7515869140625 102.0168991088867 51.96840286254883 102.0168991088867 59.37020492553711 C 102.0168991088867 66.77201843261719 100.8029708862305 73.98880767822266 98.40886688232422 80.82009124755859 C 95.92688751220703 87.90209197998047 92.27854919433594 94.25862121582031 87.56500244140625 99.71341705322266 L 87.55802917480469 99.72174835205078 L 87.54739379882812 99.73390960693359 L 81.15663909912109 107.0450286865234 L 81.15479278564453 107.0472259521484 L 81.13993835449219 107.0642776489258 C 76.38299560546875 112.4642791748047 70.19977569580078 119.4200439453125 62.76204681396484 127.7383346557617 C 59.98920440673828 130.8392181396484 56.32308197021484 132.5472106933594 52.44008255004883 132.5472106933594 Z"
                stroke="none" />
            <path
                d="M 52.43941116333008 131.0471954345703 C 55.75749206542969 131.0473785400391 59.07516479492188 129.611083984375 61.64383697509766 126.7385101318359 C 69.17103576660156 118.3201904296875 75.29413604736328 111.4310913085938 80.01437377929688 106.0727310180664 L 80.01751708984375 106.0690078735352 L 86.42241668701172 98.74149322509766 C 105.2150573730469 77.00285339355469 105.2150573730469 41.73768997192383 86.42241668701172 19.99859046936035 C 67.64983367919922 -1.717008590698242 37.22787475585938 -1.717008590698242 18.45529556274414 19.99859046936035 C 15.18529605865479 23.78119087219238 12.48429584503174 27.97331047058105 10.24387550354004 32.6604118347168 C 0.231255978345871 53.60042953491211 2.932255983352661 80.78536987304688 18.45529556274414 98.74149322509766 C 20.05379676818848 100.5901947021484 22.03683662414551 102.8593902587891 24.40415573120117 105.5482940673828 L 24.4079761505127 105.5527725219727 L 43.23511505126953 126.7370300292969 C 45.8028450012207 129.6103515625 49.12133026123047 131.0470123291016 52.43941116333008 131.0471954345703 M 52.44011688232422 134.0471954345703 L 52.44011688232422 131.0471954345703 L 52.43995666503906 134.0471954345703 C 50.32189559936523 134.0470733642578 48.25791549682617 133.5925140380859 46.30463409423828 132.6961364746094 C 44.3163948059082 131.7837371826172 42.53105545043945 130.4513702392578 40.99817657470703 128.7360687255859 L 40.99838638305664 128.7358856201172 L 40.99019622802734 128.7276306152344 L 22.15251350402832 107.5306549072266 L 22.15247535705566 107.5306930541992 C 19.79833602905273 104.8567733764648 17.79091644287109 102.5598297119141 16.18597602844238 100.7036895751953 C 12.18471622467041 96.07527160644531 8.909655570983887 90.77583312988281 6.451575756072998 84.95240783691406 C 4.086055755615234 79.34819030761719 2.519016027450562 73.36485290527344 1.794036030769348 67.16854858398438 C 1.078256011009216 61.05087280273438 1.200255990028381 54.87967300415039 2.156676054000854 48.82639312744141 C 3.128576040267944 42.67502975463867 4.938896179199219 36.80060958862305 7.537355899810791 31.36627197265625 C 9.929816246032715 26.36109161376953 12.75879573822021 22.00081062316895 16.18577575683594 18.03663063049316 C 21.05153656005859 12.40805149078369 26.73579597473145 8.044671058654785 33.08063507080078 5.067651271820068 C 36.14347457885742 3.630571365356445 39.34777450561523 2.531971216201782 42.60455703735352 1.802371263504028 C 45.83447647094727 1.078791260719299 49.14321517944336 0.7118912935256958 52.4388542175293 0.7118912935256958 C 55.7344970703125 0.7118912935256958 59.04323577880859 1.078791260719299 62.27315521240234 1.802371263504028 C 65.52993774414062 2.531971216201782 68.73423767089844 3.630571365356445 71.79707336425781 5.067651271820068 C 78.14193725585938 8.044671058654785 83.82617950439453 12.40805149078369 88.69193267822266 18.03665161132812 C 93.53299713134766 23.63673210144043 97.27851867675781 30.15961074829102 99.82443237304688 37.42415237426758 C 102.2745742797852 44.41530990600586 103.5168991088867 51.79905319213867 103.5168991088867 59.37021255493164 C 103.5168991088867 66.94139099121094 102.2745742797852 74.32508850097656 99.82443237304688 81.31620788574219 C 97.27851867675781 88.5806884765625 93.53299713134766 95.10349273681641 88.69193267822266 100.7034530639648 L 88.67673492431641 100.7211151123047 L 82.26549530029297 108.0557708740234 C 77.50503540039062 113.4597702026367 71.3193359375 120.4183502197266 63.88021469116211 128.7381439208984 C 62.34695434570312 130.4528350830078 60.56171417236328 131.7846374511719 58.57403564453125 132.6966247558594 C 56.62085723876953 133.5927886962891 54.55709457397461 134.0471954345703 52.44011688232422 134.0471954345703 Z"
                stroke="none" fill="#f9fbf8" />
        </g>
        <g id="Group_38" data-name="Group 38" transform="translate(31.877 31.39)" clip-path="url(#clip-path)">
            <g id="Path_17" data-name="Path 17" transform="translate(3.106 -0.232)" fill="none" stroke-linecap="round"
                stroke-linejoin="bevel">
                <path
                    d="M49.7,43.909V34.2c0-12.16,0-18.24-2.516-22.3a13.344,13.344,0,0,0-1.325-1.794C42.865,6.7,38.374,6.7,29.393,6.7s-13.472,0-16.47,3.406A13.387,13.387,0,0,0,11.6,11.9C9.081,15.963,9.081,22.043,9.081,34.2v9.706c0,12.16,0,18.24,2.516,22.3A13.373,13.373,0,0,0,12.922,68c3,3.406,7.489,3.406,16.47,3.406s13.472,0,16.47-3.406a13.33,13.33,0,0,0,1.325-1.795C49.7,62.149,49.7,56.069,49.7,43.909Z"
                    stroke="none" />
                <path
                    d="M 29.3927116394043 71.40838623046875 C 38.37412261962891 71.40838623046875 42.86514282226562 71.40838623046875 45.86312103271484 68.00276184082031 C 46.34285354614258 67.45809936523438 46.7862434387207 66.85730743408203 47.18832015991211 66.20791625976562 C 49.70406723022461 62.14912033081055 49.70406723022461 56.06878662109375 49.70406723022461 43.90888595581055 L 49.70406723022461 34.20295333862305 C 49.70406723022461 22.0426082611084 49.70406723022461 15.96257495880127 47.18832015991211 11.90326404571533 C 46.7862434387207 11.25400829315186 46.34285354614258 10.65359783172607 45.86312103271484 10.10878658294678 C 42.86514282226562 6.70269775390625 38.37412261962891 6.70269775390625 29.3927116394043 6.70269775390625 C 20.41129875183105 6.70269775390625 15.92028903961182 6.70269775390625 12.92224407196045 10.10878658294678 C 12.44269943237305 10.65359783172607 11.99924373626709 11.25400829315186 11.59686660766602 11.90326404571533 C 9.08104419708252 15.96257495880127 9.08104419708252 22.0426082611084 9.08104419708252 34.20295333862305 L 9.08104419708252 43.90888595581055 C 9.08104419708252 56.06878662109375 9.08104419708252 62.14912033081055 11.59686660766602 66.20791625976562 C 11.99924373626709 66.85730743408203 12.44269943237305 67.45809936523438 12.92224407196045 68.00276184082031 C 15.92028903961182 71.40838623046875 20.41129875183105 71.40838623046875 29.3927116394043 71.40838623046875 M 29.3927116394043 74.40838623046875 C 24.68974494934082 74.40838623046875 21.29177665710449 74.40838623046875 18.4326114654541 73.94385528564453 C 16.78547668457031 73.67623901367188 15.39559936523438 73.25909423828125 14.18355560302734 72.6685791015625 C 12.82768821716309 72.00797271728516 11.67854404449463 71.13018798828125 10.67046642303467 69.98505401611328 C 10.0827112197876 69.31748962402344 9.53636646270752 68.57825469970703 9.046732902526855 67.78805541992188 C 6.08104419708252 63.00347518920898 6.08104419708252 56.62217712402344 6.08104419708252 43.90888595581055 L 6.08104419708252 34.20295333862305 C 6.08104419708252 21.48963165283203 6.08104419708252 15.10830879211426 9.04688835144043 10.32287502288818 C 9.535866737365723 9.533886909484863 10.08207702636719 8.794953346252441 10.67033290863037 8.126642227172852 C 11.67840003967285 6.981375217437744 12.82754421234131 6.103475093841553 14.18341064453125 5.442775249481201 C 15.39547729492188 4.852164268493652 16.78537750244141 4.434953212738037 18.43254470825195 4.16729736328125 C 21.29174423217773 3.702697515487671 24.68973350524902 3.702697515487671 29.3927116394043 3.702697515487671 C 34.09569931030273 3.702697515487671 37.49367904663086 3.702697515487671 40.35287857055664 4.16729736328125 C 42.00004577636719 4.434953212738037 43.38994598388672 4.852164268493652 44.60200119018555 5.44278621673584 C 45.95786666870117 6.103475093841553 47.10699844360352 6.981386661529541 48.11505508422852 8.126675605773926 C 48.70343399047852 8.794864654541016 49.24990081787109 9.534231185913086 49.73884582519531 10.32375335693359 C 52.70406723022461 15.10833072662354 52.70406723022461 21.48965263366699 52.70406723022461 34.20295333862305 L 52.70406723022461 43.90888595581055 C 52.70406723022461 56.62215423583984 52.70406723022461 63.00345230102539 49.73823165893555 67.78842163085938 C 49.24941253662109 68.57791137695312 48.70281219482422 69.31757354736328 48.11438751220703 69.98564147949219 C 47.10685348510742 71.13017272949219 45.95772171020508 72.00796508789062 44.60185623168945 72.66856384277344 C 43.38982009887695 73.25909423828125 41.99994277954102 73.67623901367188 40.35280990600586 73.94385528564453 C 37.49364471435547 74.40838623046875 34.09567642211914 74.40838623046875 29.3927116394043 74.40838623046875 Z"
                    stroke="none" fill="#fff" />
            </g>
            <g id="Path_18" data-name="Path 18" transform="translate(13.347 30.6)" fill="#fcfcfc" stroke-linecap="round"
                stroke-linejoin="bevel">
                <path
                    d="M 19.15165901184082 32.37135696411133 C 16.52972793579102 32.37135696411133 14.08092880249023 31.1708984375 12.25637817382812 28.99111747741699 C 10.49630832672119 26.88838768005371 9.526998519897461 24.10916900634766 9.526998519897461 21.16542816162109 C 9.526998519897461 18.22138786315918 10.49631881713867 15.44205856323242 12.25639820098877 13.33941841125488 C 14.08088874816895 11.1598482131958 16.5296688079834 9.959498405456543 19.15165901184082 9.959498405456543 C 21.77365875244141 9.959498405456543 24.22244834899902 11.1598482131958 26.04692840576172 13.33941841125488 C 27.8070182800293 15.44205856323242 28.77633857727051 18.22138786315918 28.77633857727051 21.16542816162109 C 28.77633857727051 24.10917854309082 27.80702781677246 26.88838768005371 26.04695892333984 28.99111747741699 C 24.22239875793457 31.1708984375 21.77359771728516 32.37135696411133 19.15165901184082 32.37135696411133 Z"
                    stroke="none" />
                <path
                    d="M 19.15165901184082 11.45949745178223 C 14.66440773010254 11.45949745178223 11.02699851989746 15.80483818054199 11.02699851989746 21.16542816162109 C 11.02699851989746 26.5252685546875 14.66440773010254 30.8713493347168 19.15165901184082 30.8713493347168 C 23.6389274597168 30.8713493347168 27.27633857727051 26.5252685546875 27.27633857727051 21.16542816162109 C 27.27633857727051 15.80483818054199 23.6389274597168 11.45949745178223 19.15165901184082 11.45949745178223 M 19.15165901184082 8.459499359130859 C 20.72286796569824 8.459499359130859 22.24208831787109 8.824577331542969 23.66711807250977 9.544597625732422 C 25.00031852722168 10.21821975708008 26.18798828125 11.17104721069336 27.19713973999023 12.3765983581543 C 29.18278884887695 14.74870872497559 30.27633857727051 17.8699779510498 30.27633857727051 21.16542816162109 C 30.27633857727051 24.46057891845703 29.18280792236328 27.58171844482422 27.19718933105469 29.95390701293945 C 26.18804931640625 31.15951919555664 25.00039863586426 32.11239624023438 23.6672477722168 32.78607940673828 C 22.24215888977051 33.50621032714844 20.72289848327637 33.8713493347168 19.15165901184082 33.8713493347168 C 17.58041763305664 33.8713493347168 16.06115913391113 33.50621032714844 14.63607788085938 32.78607940673828 C 13.30292892456055 32.11239624023438 12.11528778076172 31.15951919555664 11.10614776611328 29.95390701293945 C 9.120529174804688 27.58171844482422 8.026998519897461 24.46057891845703 8.026998519897461 21.16542816162109 C 8.026998519897461 17.8699779510498 9.120548248291016 14.74870872497559 11.10618782043457 12.37660789489746 C 12.1153392791748 11.17104721069336 13.30300903320312 10.21822738647461 14.63620948791504 9.544597625732422 C 16.06123924255371 8.824577331542969 17.58044815063477 8.459499359130859 19.15165901184082 8.459499359130859 Z"
                    stroke="none" fill="#fff" />
            </g>
            <path id="Path_19" data-name="Path 19" d="M9.081,10.162H49.7" transform="translate(3.106 22.191)"
                fill="rgba(251,236,251,0.31)" stroke="#fff" stroke-linecap="round" stroke-width="3" />
        </g>
    </g>
</svg>