<svg width="16" height="16" viewBox="0 0 16 16" fill="none" xmlns="http://www.w3.org/2000/svg">
<mask id="mask0_16_25166" style="mask-type:alpha" maskUnits="userSpaceOnUse" x="0" y="0" width="16" height="16">
<rect width="16" height="16" fill="#D9D9D9"/>
</mask>
<g mask="url(#mask0_16_25166)">
<path d="M5.33331 10H6.66665V8H8.99998V9.66666L11.3333 7.33333L8.99998 4.99999V6.66666H5.99998C5.81109 6.66666 5.65276 6.73055 5.52498 6.85833C5.3972 6.98611 5.33331 7.14444 5.33331 7.33333V10ZM7.99998 14.6667C7.83331 14.6667 7.66942 14.6333 7.50831 14.5667C7.3472 14.5 7.19998 14.4 7.06665 14.2667L1.73331 8.93333C1.59998 8.8 1.49998 8.65277 1.43331 8.49166C1.36665 8.33055 1.33331 8.16666 1.33331 8C1.33331 7.83333 1.36665 7.66944 1.43331 7.50833C1.49998 7.34722 1.59998 7.2 1.73331 7.06666L7.06665 1.73333C7.19998 1.59999 7.3472 1.49999 7.50831 1.43333C7.66942 1.36666 7.83331 1.33333 7.99998 1.33333C8.16665 1.33333 8.33054 1.36666 8.49165 1.43333C8.65276 1.49999 8.79998 1.59999 8.93331 1.73333L14.2666 7.06666C14.4 7.2 14.5 7.34722 14.5666 7.50833C14.6333 7.66944 14.6666 7.83333 14.6666 8C14.6666 8.16666 14.6333 8.33055 14.5666 8.49166C14.5 8.65277 14.4 8.8 14.2666 8.93333L8.93331 14.2667C8.79998 14.4 8.65276 14.5 8.49165 14.5667C8.33054 14.6333 8.16665 14.6667 7.99998 14.6667Z" fill="#414651"/>
</g>
</svg>
