<svg width="38" height="38" viewBox="0 0 38 38" fill="none" xmlns="http://www.w3.org/2000/svg">
<g opacity="0.3">
<path d="M6 19C6 11.8203 11.8203 6 19 6C26.1797 6 32 11.8203 32 19C32 26.1797 26.1797 32 19 32C11.8203 32 6 26.1797 6 19Z" stroke="#079455" stroke-width="2"/>
</g>
<g opacity="0.1">
<path d="M1 19C1 9.05888 9.05888 1 19 1C28.9411 1 37 9.05888 37 19C37 28.9411 28.9411 37 19 37C9.05888 37 1 28.9411 1 19Z" stroke="#079455" stroke-width="2"/>
</g>
<path d="M20.4534 11.1948L26.7267 15.2725C26.9484 15.4166 27.0592 15.4886 27.1395 15.5847C27.2106 15.6698 27.264 15.7682 27.2966 15.8741C27.3334 15.9938 27.3334 16.126 27.3334 16.3904V22.5001C27.3334 23.9003 27.3334 24.6003 27.0609 25.1351C26.8212 25.6055 26.4388 25.988 25.9684 26.2277C25.4336 26.5001 24.7335 26.5001 23.3334 26.5001H14.6667C13.2666 26.5001 12.5666 26.5001 12.0318 26.2277C11.5614 25.988 11.1789 25.6055 10.9392 25.1351C10.6667 24.6003 10.6667 23.9003 10.6667 22.5001V16.3904C10.6667 16.126 10.6667 15.9938 10.7036 15.8741C10.7361 15.7682 10.7895 15.6698 10.8606 15.5847C10.9409 15.4886 11.0518 15.4166 11.2734 15.2725L17.5468 11.1948M20.4534 11.1948C19.9273 10.8529 19.6643 10.6819 19.3809 10.6154C19.1304 10.5566 18.8697 10.5566 18.6192 10.6154C18.3358 10.6819 18.0728 10.8529 17.5468 11.1948M20.4534 11.1948L26.4735 15.1078C26.7601 15.2941 26.9034 15.3873 26.953 15.5054C26.9964 15.6086 26.9964 15.725 26.953 15.8282C26.9034 15.9463 26.7601 16.0395 26.4735 16.2258L20.4534 20.1388C19.9274 20.4808 19.6643 20.6517 19.3809 20.7182C19.1304 20.777 18.8697 20.777 18.6192 20.7182C18.3358 20.6517 18.0728 20.4808 17.5468 20.1388L11.5267 16.2258C11.2401 16.0395 11.0968 15.9463 11.0472 15.8282C11.0038 15.725 11.0038 15.6086 11.0472 15.5054C11.0968 15.3873 11.2401 15.2941 11.5267 15.1079L17.5468 11.1948" stroke="#079455" stroke-width="1.66667" stroke-linecap="round" stroke-linejoin="round"/>
</svg>
