<svg width="20" height="16" viewBox="0 0 20 16" fill="none" xmlns="http://www.w3.org/2000/svg">
<path d="M1.66663 4.18507L8.47073 8.94794C9.0217 9.33363 9.29719 9.52647 9.59685 9.60116C9.86154 9.66714 10.1384 9.66714 10.4031 9.60116C10.7027 9.52647 10.9782 9.33363 11.5292 8.94794L18.3333 4.18507M5.66663 15.0184H14.3333C15.7334 15.0184 16.4335 15.0184 16.9683 14.7459C17.4387 14.5062 17.8211 14.1238 18.0608 13.6534C18.3333 13.1186 18.3333 12.4185 18.3333 11.0184V5.68507C18.3333 4.28494 18.3333 3.58488 18.0608 3.0501C17.8211 2.57969 17.4387 2.19724 16.9683 1.95756C16.4335 1.68507 15.7334 1.68507 14.3333 1.68507H5.66663C4.26649 1.68507 3.56643 1.68507 3.03165 1.95756C2.56124 2.19724 2.17879 2.57969 1.93911 3.0501C1.66663 3.58488 1.66663 4.28494 1.66663 5.68507V11.0184C1.66663 12.4185 1.66663 13.1186 1.93911 13.6534C2.17879 14.1238 2.56124 14.5062 3.03165 14.7459C3.56643 15.0184 4.26649 15.0184 5.66663 15.0184Z" stroke="#717680" stroke-width="1.66667" stroke-linecap="round" stroke-linejoin="round"/>
</svg>
