<svg width="16" height="15" viewBox="0 0 16 15" fill="none" xmlns="http://www.w3.org/2000/svg">
<path d="M7.16196 2.74662C7.4329 2.70657 7.7124 2.68508 8.00028 2.68508C11.4036 2.68508 13.6369 5.68831 14.3871 6.87629C14.4779 7.02008 14.5233 7.09197 14.5488 7.20286C14.5678 7.28614 14.5678 7.41752 14.5487 7.5008C14.5233 7.61168 14.4776 7.68405 14.3861 7.82879C14.1862 8.14518 13.8814 8.58981 13.4777 9.07205M4.48288 3.82844C3.0415 4.80621 2.06297 6.16466 1.61407 6.87527C1.52286 7.01966 1.47725 7.09186 1.45183 7.20273C1.43273 7.28601 1.43272 7.41737 1.45181 7.50065C1.47722 7.61153 1.52262 7.68342 1.61342 7.8272C2.36369 9.01519 4.59694 12.0184 8.00028 12.0184C9.37255 12.0184 10.5546 11.5301 11.5259 10.8695M2.00028 1.35175L14.0003 13.3517M6.58606 5.93753C6.22413 6.29946 6.00028 6.79946 6.00028 7.35175C6.00028 8.45632 6.89571 9.35175 8.00028 9.35175C8.55256 9.35175 9.05256 9.12789 9.41449 8.76596" stroke="#667085" stroke-width="2" stroke-linecap="round" stroke-linejoin="round"/>
</svg>
