<svg width="16" height="17" viewBox="0 0 16 17" fill="none" xmlns="http://www.w3.org/2000/svg">
<path d="M1.61342 8.77493C1.52262 8.63117 1.47723 8.55929 1.45182 8.44842C1.43273 8.36515 1.43273 8.23381 1.45182 8.15054C1.47723 8.03967 1.52262 7.96779 1.61341 7.82403C2.36369 6.63604 4.59693 3.63281 8.00027 3.63281C11.4036 3.63281 13.6369 6.63604 14.3871 7.82403C14.4779 7.96779 14.5233 8.03967 14.5487 8.15054C14.5678 8.23381 14.5678 8.36515 14.5487 8.44842C14.5233 8.55929 14.4779 8.63117 14.3871 8.77493C13.6369 9.96292 11.4036 12.9661 8.00027 12.9661C4.59693 12.9661 2.36369 9.96292 1.61342 8.77493Z" stroke="#717680" stroke-width="2" stroke-linecap="round" stroke-linejoin="round"/>
<path d="M8.00027 10.2995C9.10484 10.2995 10.0003 9.40405 10.0003 8.29948C10.0003 7.19491 9.10484 6.29948 8.00027 6.29948C6.8957 6.29948 6.00027 7.19491 6.00027 8.29948C6.00027 9.40405 6.8957 10.2995 8.00027 10.2995Z" stroke="#717680" stroke-width="2" stroke-linecap="round" stroke-linejoin="round"/>
</svg>
