<svg width="32" height="30" viewBox="0 0 32 30" fill="none" xmlns="http://www.w3.org/2000/svg">
<path d="M1.0284 9.33793C1.43195 9.33793 1.65055 9.11212 1.65055 8.72502V4.38621C1.65055 2.2894 2.79395 1.1926 4.97988 1.1926H9.51988C9.92344 1.1926 10.1588 0.982916 10.1588 0.59581C10.1588 0.208705 9.92344 -0.000976562 9.51988 -0.000976562H4.94625C1.97003 -0.000976562 0.40625 1.48293 0.40625 4.3217V8.72502C0.40625 9.11212 0.624843 9.33793 1.0284 9.33793ZM30.9756 9.33793C31.3791 9.33793 31.5977 9.11212 31.5977 8.72502V4.3217C31.5977 1.51518 30.0508 -0.000976562 27.0745 -0.000976562H22.4841C22.0805 -0.000976562 21.8451 0.208705 21.8451 0.59581C21.8451 0.982916 22.0805 1.1926 22.4841 1.1926H27.0241C29.1428 1.1926 30.3534 2.2894 30.3534 4.38621V8.72502C30.3534 9.11212 30.572 9.33793 30.9756 9.33793ZM14.6316 17.1284H14.7829C16.1449 17.1284 16.8343 16.4832 16.8343 15.1606V10.2089C16.8343 9.83794 16.6494 9.66052 16.2626 9.66052C15.8927 9.66052 15.6909 9.83794 15.6909 10.2089V15.3058C15.6909 15.7413 15.321 16.0155 14.9511 16.0155H14.3794C14.0599 16.0155 13.8245 16.2413 13.8245 16.5478C13.8245 16.9349 14.0767 17.1284 14.6316 17.1284ZM9.95707 13.4187C10.4615 13.4187 10.781 13.1122 10.781 12.6283V10.4831C10.781 9.98311 10.4615 9.67665 9.95707 9.67665C9.46944 9.67665 9.14995 9.99924 9.14995 10.4831V12.6283C9.14995 13.1122 9.46944 13.4187 9.95707 13.4187ZM21.8956 13.4187C22.3832 13.4187 22.7027 13.1122 22.7027 12.6283V10.4831C22.7027 9.99924 22.3832 9.67665 21.8956 9.67665C21.3911 9.67665 21.0548 9.98311 21.0548 10.4831V12.6283C21.0548 13.1122 21.3911 13.4187 21.8956 13.4187ZM15.8591 22.064C17.7087 22.064 19.5583 21.3221 20.9203 20.0156C21.0212 19.9349 21.1221 19.7898 21.1221 19.5801C21.1221 19.2575 20.8699 19.0478 20.5672 19.0478C20.3823 19.0478 20.2309 19.0962 20.0123 19.322C19.0034 20.2898 17.4397 20.9833 15.8591 20.9833C14.2785 20.9833 12.7315 20.2898 11.7058 19.322C11.504 19.1123 11.3527 19.0478 11.1509 19.0478C10.8483 19.0478 10.596 19.2575 10.596 19.5801C10.596 19.7736 10.6969 19.9188 10.7978 20.0156C12.1262 21.3382 14.0094 22.064 15.8591 22.064ZM4.94625 29.919H9.51988C9.92344 29.919 10.1588 29.7093 10.1588 29.3222C10.1588 28.9351 9.92344 28.7254 9.51988 28.7254H4.97988C2.79395 28.7254 1.65055 27.6287 1.65055 25.5157V21.193C1.65055 20.8059 1.43195 20.564 1.0284 20.564C0.624843 20.564 0.40625 20.8059 0.40625 21.193V25.5802C0.40625 28.4351 1.97003 29.919 4.94625 29.919ZM22.4841 29.919H27.0745C30.0508 29.919 31.5977 28.3867 31.5977 25.5802V21.193C31.5977 20.8059 31.3791 20.564 30.9756 20.564C30.572 20.564 30.3534 20.8059 30.3534 21.193V25.5157C30.3534 27.6287 29.1428 28.7254 27.0241 28.7254H22.4841C22.0805 28.7254 21.8451 28.9351 21.8451 29.3222C21.8451 29.7093 22.0805 29.919 22.4841 29.919Z" fill="#101817"/>
</svg>
