<svg width="29" height="32" viewBox="0 0 29 32" fill="none" xmlns="http://www.w3.org/2000/svg">
<path id="Vector" d="M23.8705 3.952C23.7416 3.952 23.6127 3.92 23.4999 3.856C20.4059 2.272 17.7309 1.6 14.5242 1.6C11.3335 1.6 8.30401 2.352 5.54845 3.856C5.1617 4.064 4.67827 3.92 4.45267 3.536C4.24318 3.152 4.38821 2.656 4.77496 2.448C7.77224 0.832 11.0596 0 14.5242 0C17.9565 0 20.9538 0.752 24.2412 2.432C24.644 2.64 24.7891 3.12 24.5796 3.504C24.4345 3.792 24.1606 3.952 23.8705 3.952V3.952ZM0.810811 12.352C0.649667 12.352 0.488523 12.304 0.343493 12.208C-0.0271385 11.952 -0.107711 11.456 0.15012 11.088C1.74545 8.848 3.77586 7.088 6.19302 5.856C11.2529 3.264 17.7309 3.248 22.807 5.84C25.2241 7.072 27.2546 8.816 28.8499 11.04C29.1077 11.392 29.0271 11.904 28.6565 12.16C28.2859 12.416 27.7863 12.336 27.5285 11.968C26.0782 9.952 24.2412 8.368 22.0657 7.264C17.4409 4.912 11.5269 4.912 6.91817 7.28C4.72661 8.4 2.88957 10 1.43927 12.016C1.31036 12.24 1.06864 12.352 0.810811 12.352V12.352ZM10.8823 31.664C10.6728 31.664 10.4633 31.584 10.3183 31.424C8.91636 30.032 8.15898 29.136 7.07932 27.2C5.96742 25.232 5.3873 22.832 5.3873 20.256C5.3873 15.504 9.48036 11.632 14.5081 11.632C19.5358 11.632 23.6288 15.504 23.6288 20.256C23.6288 20.704 23.2743 21.056 22.8231 21.056C22.3719 21.056 22.0174 20.704 22.0174 20.256C22.0174 16.384 18.6495 13.232 14.5081 13.232C10.3667 13.232 6.99874 16.384 6.99874 20.256C6.99874 22.56 7.51441 24.688 8.49738 26.416C9.52871 28.256 10.2377 29.04 11.4785 30.288C11.7847 30.608 11.7847 31.104 11.4785 31.424C11.3013 31.584 11.0918 31.664 10.8823 31.664ZM22.4363 28.704C20.5187 28.704 18.8267 28.224 17.4409 27.28C15.0398 25.664 13.6057 23.04 13.6057 20.256C13.6057 19.808 13.9602 19.456 14.4114 19.456C14.8626 19.456 15.2171 19.808 15.2171 20.256C15.2171 22.512 16.3773 24.64 18.3433 25.952C19.4874 26.72 20.8249 27.088 22.4363 27.088C22.8231 27.088 23.4677 27.04 24.1122 26.928C24.5473 26.848 24.9663 27.136 25.0469 27.584C25.1275 28.016 24.8374 28.432 24.3862 28.512C23.4677 28.688 22.6619 28.704 22.4363 28.704V28.704ZM19.1974 32C19.1329 32 19.0523 31.984 18.9879 31.968C16.4257 31.264 14.7498 30.32 12.9933 28.608C10.7373 26.384 9.49648 23.424 9.49648 20.256C9.49648 17.664 11.7203 15.552 14.4597 15.552C17.1992 15.552 19.423 17.664 19.423 20.256C19.423 21.968 20.9216 23.36 22.7747 23.36C24.6279 23.36 26.1265 21.968 26.1265 20.256C26.1265 14.224 20.8894 9.328 14.4436 9.328C9.86711 9.328 5.67736 11.856 3.79198 15.776C3.16351 17.072 2.84123 18.592 2.84123 20.256C2.84123 21.504 2.95403 23.472 3.92089 26.032C4.08204 26.448 3.87255 26.912 3.45357 27.056C3.0346 27.216 2.56728 26.992 2.42225 26.592C1.63265 24.496 1.2459 22.416 1.2459 20.256C1.2459 18.336 1.61653 16.592 2.34168 15.072C4.4849 10.608 9.23865 7.712 14.4436 7.712C21.7757 7.712 27.738 13.328 27.738 20.24C27.738 22.832 25.5142 24.944 22.7747 24.944C20.0353 24.944 17.8115 22.832 17.8115 20.24C17.8115 18.528 16.3129 17.136 14.4597 17.136C12.6066 17.136 11.1079 18.528 11.1079 20.24C11.1079 22.976 12.1715 25.536 14.1213 27.456C15.6522 28.96 17.1186 29.792 19.3907 30.416C19.8258 30.528 20.0675 30.976 19.9547 31.392C19.8742 31.76 19.5358 32 19.1974 32V32Z" fill="#030505"/>
</svg>
