<svg width="16" height="19" viewBox="0 0 16 19" fill="none" xmlns="http://www.w3.org/2000/svg">
<path d="M6.33331 12.633H9.66665M5.33331 17.633H10.6666C12.0668 17.633 12.7668 17.633 13.3016 17.3605C13.772 17.1208 14.1545 16.7384 14.3942 16.268C14.6666 15.7332 14.6666 15.0331 14.6666 13.633V4.96631C14.6666 3.56618 14.6666 2.86611 14.3942 2.33133C14.1545 1.86093 13.772 1.47848 13.3016 1.23879C12.7668 0.966309 12.0668 0.966309 10.6666 0.966309H5.33331C3.93318 0.966309 3.23312 0.966309 2.69834 1.23879C2.22793 1.47848 1.84548 1.86093 1.6058 2.33133C1.33331 2.86611 1.33331 3.56618 1.33331 4.96631V13.633C1.33331 15.0331 1.33331 15.7332 1.6058 16.268C1.84548 16.7384 2.22793 17.1208 2.69834 17.3605C3.23312 17.633 3.93318 17.633 5.33331 17.633ZM10.5 6.79964C10.5 8.18035 9.38069 9.29964 7.99998 9.29964C6.61927 9.29964 5.49998 8.18035 5.49998 6.79964C5.49998 5.41893 6.61927 4.29964 7.99998 4.29964C9.38069 4.29964 10.5 5.41893 10.5 6.79964Z" stroke="#717680" stroke-width="1.66667" stroke-linecap="round" stroke-linejoin="round"/>
</svg>
