<svg width="153" height="152" viewBox="0 0 153 152" fill="none" xmlns="http://www.w3.org/2000/svg">
<g clip-path="url(#clip0_83_6155)">
<path d="M103.615 108.88L108.085 106.3V111.46H112.745V106.3L117.215 108.88L119.545 104.84L115.075 102.26L119.545 99.6801L117.215 95.6401L112.745 98.2201V93.0601H108.085V98.2201L103.615 95.6401L101.285 99.6801L105.745 102.26L101.285 104.84L103.615 108.88Z" fill="#E18541"/>
<path d="M81.0051 108.88L85.4751 106.3V111.46H90.1351V106.3L94.605 108.88L96.9351 104.84L92.4751 102.26L96.9351 99.6801L94.605 95.6401L90.1351 98.2201V93.0601H85.4751V98.2201L81.0051 95.6401L78.675 99.6801L83.1351 102.26L78.675 104.84L81.0051 108.88Z" fill="#E18541"/>
<path d="M58.395 108.88L62.865 106.3V111.46H67.535V106.3L71.995 108.88L74.325 104.84L69.865 102.26L74.325 99.6801L71.995 95.6401L67.535 98.2201V93.0601H62.865V98.2201L58.395 95.6401L56.065 99.6801L60.535 102.26L56.065 104.84L58.395 108.88Z" fill="#E18541"/>
<path d="M35.795 108.88L40.255 106.3V111.46H44.925V106.3L49.395 108.88L51.725 104.84L47.255 102.26L51.725 99.6801L49.395 95.6401L44.925 98.2201V93.0601H40.255V98.2201L35.795 95.6401L33.455 99.6801L37.925 102.26L33.455 104.84L35.795 108.88Z" fill="#E18541"/>
<path d="M39.675 119.95H113.325C123.075 119.95 131.015 112.02 131.015 102.26C131.015 92.4999 123.085 84.5699 113.325 84.5699H108.435V63.2899C108.435 59.8599 105.655 57.0799 102.225 57.0799H100.525C100.525 52.1699 100.535 47.1999 100.535 42.2599C100.535 35.7199 97.815 30.0499 92.875 26.2999C88.625 23.0799 82.975 21.3799 76.525 21.3799H76.505C62.145 21.3799 52.505 29.7899 52.505 42.2799C52.505 47.1999 52.495 52.1699 52.475 57.0799H50.775C47.345 57.0799 44.565 59.8599 44.565 63.2899V84.5699H39.675C29.925 84.5699 21.985 92.4999 21.985 102.26C21.985 112.02 29.915 119.95 39.675 119.95ZM64.585 42.2799C64.585 39.4799 65.525 37.4099 67.465 35.9399C69.555 34.3499 72.775 33.4699 76.515 33.4599H76.525C80.265 33.4599 83.475 34.3399 85.575 35.9299C87.515 37.3999 88.455 39.4699 88.455 42.2599C88.455 47.1999 88.455 52.1699 88.445 57.0799H64.555C64.575 52.1699 64.595 47.1999 64.585 42.2799ZM39.675 88.3799H113.325C120.975 88.3799 127.205 94.5999 127.205 102.26C127.205 109.92 120.985 116.14 113.325 116.14H39.675C32.025 116.14 25.795 109.92 25.795 102.26C25.795 94.5999 32.025 88.3799 39.675 88.3799Z" fill="#E18541"/>
<path d="M138.835 32.5301C138.235 31.6701 137.045 31.4501 136.185 32.0501C135.325 32.6501 135.105 33.8401 135.705 34.7001C154.125 61.1901 152.585 97.0501 131.965 121.89C111.345 146.74 76.385 154.85 46.965 141.64C46.015 141.21 45.065 140.75 44.125 140.28C39.485 137.93 35.105 135.08 31.085 131.82L36.795 131.29C37.845 131.19 38.615 130.26 38.515 129.22C38.415 128.17 37.495 127.4 36.445 127.5L26.135 128.46C25.085 128.56 24.315 129.49 24.415 130.53L25.375 140.84C25.465 141.83 26.295 142.57 27.275 142.57C27.335 142.57 27.395 142.57 27.455 142.57C28.505 142.47 29.275 141.54 29.175 140.5L28.645 134.75C32.885 138.2 37.525 141.21 42.425 143.7C43.405 144.19 44.405 144.67 45.405 145.13C55.345 149.6 65.8951 151.75 76.3451 151.75C98.465 151.75 120.175 142.11 134.915 124.34C156.625 98.1801 158.245 60.4301 138.845 32.5401L138.835 32.5301Z" fill="#E18541"/>
<path d="M106.055 10.1201C107.005 10.5301 107.945 10.9802 108.885 11.4601C113.535 13.8201 117.925 16.6602 121.935 19.9302L116.205 20.4601C115.155 20.5602 114.385 21.4902 114.485 22.5302C114.575 23.5202 115.405 24.2602 116.385 24.2602C116.445 24.2602 116.505 24.2602 116.565 24.2602L126.875 23.3001C127.925 23.2001 128.695 22.2701 128.595 21.2302L127.635 10.9201C127.535 9.87015 126.615 9.09015 125.565 9.20015C124.515 9.30015 123.745 10.2302 123.845 11.2702L124.375 16.9902C120.135 13.5501 115.515 10.5401 110.615 8.06015C109.605 7.55015 108.595 7.06015 107.605 6.63015C76.615 -7.29985 39.815 1.24015 18.105 27.4102C-3.60498 53.5702 -5.22498 91.3202 14.175 119.21C14.545 119.74 15.135 120.03 15.745 120.03C16.125 120.03 16.495 119.92 16.835 119.69C17.695 119.09 17.915 117.9 17.315 117.04C-1.11498 90.5402 0.41502 54.6902 21.035 29.8402C41.665 4.99015 76.615 -3.11985 106.055 10.1201Z" fill="#E18541"/>
</g>
<defs>
<clipPath id="clip0_83_6155">
<rect width="151.69" height="151.74" fill="white" transform="translate(0.655029)"/>
</clipPath>
</defs>
</svg>
