<svg width="16" height="18" viewBox="0 0 16 18" fill="none" xmlns="http://www.w3.org/2000/svg">
<path d="M7.99998 11.7997C5.35825 11.7997 3.00898 13.0752 1.51331 15.0546C1.1914 15.4807 1.03044 15.6937 1.03571 15.9816C1.03978 16.204 1.17944 16.4846 1.35445 16.6219C1.58097 16.7997 1.89487 16.7997 2.52267 16.7997H13.4773C14.1051 16.7997 14.419 16.7997 14.6455 16.6219C14.8205 16.4846 14.9602 16.204 14.9642 15.9816C14.9695 15.6937 14.8086 15.4807 14.4866 15.0546C12.991 13.0752 10.6417 11.7997 7.99998 11.7997Z" stroke="#717680" stroke-width="1.66667" stroke-linecap="round" stroke-linejoin="round"/>
<path d="M7.99998 9.29965C10.071 9.29965 11.75 7.62072 11.75 5.54965C11.75 3.47858 10.071 1.79965 7.99998 1.79965C5.92891 1.79965 4.24998 3.47858 4.24998 5.54965C4.24998 7.62072 5.92891 9.29965 7.99998 9.29965Z" stroke="#717680" stroke-width="1.66667" stroke-linecap="round" stroke-linejoin="round"/>
</svg>
