<svg width="20" height="18" viewBox="0 0 20 18" fill="none" xmlns="http://www.w3.org/2000/svg">
<path d="M14.9994 12.1974C16.2126 12.8069 17.2528 13.785 18.0121 15.008C18.1624 15.2502 18.2376 15.3713 18.2636 15.539C18.3164 15.8798 18.0834 16.2988 17.766 16.4336C17.6098 16.5 17.4341 16.5 17.0827 16.5M13.3327 8.6102C14.5675 7.99657 15.416 6.72238 15.416 5.25C15.416 3.77762 14.5675 2.50343 13.3327 1.8898M11.666 5.25C11.666 7.32107 9.98711 9 7.91604 9C5.84497 9 4.16604 7.32107 4.16604 5.25C4.16604 3.17893 5.84497 1.5 7.91604 1.5C9.98711 1.5 11.666 3.17893 11.666 5.25ZM2.13207 14.782C3.46066 12.7871 5.55719 11.5 7.91604 11.5C10.2749 11.5 12.3714 12.7871 13.7 14.782C13.9911 15.219 14.1366 15.4375 14.1198 15.7166C14.1068 15.9339 13.9643 16.2 13.7907 16.3313C13.5676 16.5 13.2609 16.5 12.6474 16.5H3.18467C2.57118 16.5 2.26444 16.5 2.04141 16.3313C1.86775 16.2 1.72528 15.9339 1.71224 15.7166C1.69548 15.4375 1.84101 15.219 2.13207 14.782Z" stroke="#717680" stroke-width="1.66667" stroke-linecap="round" stroke-linejoin="round"/>
</svg>
