<svg id="delivery-svgrepo-com_2_" data-name="delivery-svgrepo-com(2)" xmlns="http://www.w3.org/2000/svg" width="77.001"
    height="134.35" viewBox="0 0 77.001 134.35">
    <g id="Group_36" data-name="Group 36" transform="translate(3.149 53.979)">
        <path id="Path_5" data-name="Path 5"
            d="M36.253,35.333a1.767,1.767,0,0,1-.329-.031,1.818,1.818,0,0,1-.324-.093,1.938,1.938,0,0,1-.314-.157,2.143,2.143,0,0,1-.3-.222L.919,4.558a2.489,2.489,0,0,1-.569-.75,2.93,2.93,0,0,1-.28-.917,3.031,3.031,0,0,1,.024-.97,2.727,2.727,0,0,1,.345-.908A2.226,2.226,0,0,1,1.051.344,1.852,1.852,0,0,1,1.809.026a1.771,1.771,0,0,1,.807.049,2.014,2.014,0,0,1,.762.432L37.455,30.8a2.462,2.462,0,0,1,.564.745,2.9,2.9,0,0,1,.276.911,3,3,0,0,1-.028.963,2.714,2.714,0,0,1-.347.9,2.358,2.358,0,0,1-.341.435,2.042,2.042,0,0,1-.4.315,1.853,1.853,0,0,1-.448.191,1.773,1.773,0,0,1-.474.065"
            transform="translate(0 0.001)" fill="#e6e7e8" />
        <path id="Path_6" data-name="Path 6"
            d="M2.567,35.334a1.791,1.791,0,0,1-.475-.064,1.906,1.906,0,0,1-.453-.191,2.12,2.12,0,0,1-.412-.315,2.448,2.448,0,0,1-.353-.435,2.786,2.786,0,0,1-.371-.9,3.011,3.011,0,0,1-.053-.963A2.836,2.836,0,0,1,.7,31.552a2.373,2.373,0,0,1,.545-.745L34.538.508a1.938,1.938,0,0,1,.75-.433,1.759,1.759,0,0,1,.806-.049,1.906,1.906,0,0,1,.766.319,2.316,2.316,0,0,1,.63.67,2.8,2.8,0,0,1,.368.908,3.039,3.039,0,0,1,.049.97,2.869,2.869,0,0,1-.257.917,2.4,2.4,0,0,1-.55.75L3.817,34.831a2.066,2.066,0,0,1-.291.222,1.88,1.88,0,0,1-.309.157,1.782,1.782,0,0,1-.322.093,1.756,1.756,0,0,1-.328.031"
            transform="translate(33.69)" fill="#e6e7e8" />
    </g>
    <path id="Path_7" data-name="Path 7" d="M11.594,18.143,5.862,13.614.247,18.143,0,0H11.37Z"
        transform="translate(33.661 84.845)" fill="#e8d5b2" />
    <path id="Path_8" data-name="Path 8"
        d="M37.889,0H26.523l.2,15.871-5.732-4.529-5.615,4.529L15.156,0H3.789a3.214,3.214,0,0,0-1.47.357,3.754,3.754,0,0,0-1.19.973A4.594,4.594,0,0,0,.34,2.773,5.274,5.274,0,0,0,.069,4.54L.62,40.7a5.287,5.287,0,0,0,.323,1.752,4.73,4.73,0,0,0,.83,1.431,3.9,3.9,0,0,0,1.213.964,3.274,3.274,0,0,0,1.473.354H38.393a3.217,3.217,0,0,0,1.464-.354,3.758,3.758,0,0,0,1.188-.965,4.576,4.576,0,0,0,.793-1.431,5.219,5.219,0,0,0,.277-1.752L41.727,4.54a5.342,5.342,0,0,0-.316-1.767,4.748,4.748,0,0,0-.827-1.443A3.9,3.9,0,0,0,39.369.357,3.271,3.271,0,0,0,37.889,0"
        transform="translate(18.536 87.116)" fill="#c69666" />
    <path id="Path_9" data-name="Path 9"
        d="M.825,48.344a10.847,10.847,0,0,0,.659,3.564,9.659,9.659,0,0,0,1.679,2.909,7.9,7.9,0,0,0,2.45,1.96,6.566,6.566,0,0,0,2.971.719,6.423,6.423,0,0,0,2.947-.719,7.536,7.536,0,0,0,2.386-1.96A9.269,9.269,0,0,0,15.5,51.908a10.676,10.676,0,0,0,.543-3.564,80.7,80.7,0,0,1,1.371-15.152,86.479,86.479,0,0,1,4.348-15.764,41.947,41.947,0,0,1,7.043-12.4C31.57,1.9,34.734,0,38.245,0A32.074,32.074,0,0,0,22.968,3.817,36.957,36.957,0,0,0,11.032,14.211,48.923,48.923,0,0,0,3.353,29.586,61.2,61.2,0,0,0,.825,48.344"
        transform="translate(0 0)" fill="#ee8472" />
    <path id="Path_10" data-name="Path 10"
        d="M.746,48.344A10.838,10.838,0,0,0,1.4,51.908a9.639,9.639,0,0,0,1.674,2.909,7.88,7.88,0,0,0,2.446,1.96,6.559,6.559,0,0,0,2.97.719,6.43,6.43,0,0,0,2.949-.719,7.554,7.554,0,0,0,2.389-1.96,9.288,9.288,0,0,0,1.589-2.909,10.684,10.684,0,0,0,.549-3.564c-.059-4.262.049-9.406.318-14.727s.7-10.834,1.289-15.81A88.789,88.789,0,0,1,19.8,5.169C20.7,1.961,21.752,0,22.947,0c-3.511,0-6.675,1.9-9.44,5.026a41.946,41.946,0,0,0-7.043,12.4A86.477,86.477,0,0,0,2.117,33.192,80.7,80.7,0,0,0,.746,48.344"
        transform="translate(15.298 0)" fill="#db776a" />
    <path id="Path_11" data-name="Path 11"
        d="M7.649,0C6.454,0,5.4,1.961,4.506,5.169A88.788,88.788,0,0,0,2.273,17.806C1.685,22.783,1.254,28.289.985,33.617S.608,44.082.667,48.344a10.829,10.829,0,0,0,.647,3.564,9.619,9.619,0,0,0,1.67,2.909,7.862,7.862,0,0,0,2.443,1.96,6.551,6.551,0,0,0,2.968.719,6.437,6.437,0,0,0,2.95-.719,7.572,7.572,0,0,0,2.392-1.96,9.307,9.307,0,0,0,1.594-2.909,10.692,10.692,0,0,0,.554-3.564c-.052-4.262-.293-9.406-.7-14.727s-.982-10.834-1.7-15.81a90.076,90.076,0,0,0-2.56-12.638C9.945,1.961,8.844,0,7.649,0"
        transform="translate(30.596 0)" fill="#ee8472" />
    <path id="Path_12" data-name="Path 12"
        d="M0,0C1.2,0,2.3,1.961,3.277,5.169a90.076,90.076,0,0,1,2.56,12.638c.717,4.977,1.291,10.483,1.7,15.81s.648,10.465.7,14.727a10.819,10.819,0,0,0,.641,3.564,9.6,9.6,0,0,0,1.665,2.909,7.843,7.843,0,0,0,2.44,1.96,6.544,6.544,0,0,0,2.967.719,6.444,6.444,0,0,0,2.951-.719,7.59,7.59,0,0,0,2.4-1.96,9.326,9.326,0,0,0,1.6-2.909,10.7,10.7,0,0,0,.56-3.564,81.328,81.328,0,0,0-1.764-15.152,88.285,88.285,0,0,0-4.757-15.764A43.38,43.38,0,0,0,9.57,5.026C6.724,1.9,3.511,0,0,0"
        transform="translate(38.245 0)" fill="#db776a" />
    <path id="Path_13" data-name="Path 13"
        d="M0,0C3.511,0,6.724,1.9,9.57,5.026a43.38,43.38,0,0,1,7.365,12.4,88.286,88.286,0,0,1,4.757,15.764,81.331,81.331,0,0,1,1.764,15.152,10.81,10.81,0,0,0,.635,3.564,9.579,9.579,0,0,0,1.66,2.909,7.825,7.825,0,0,0,2.437,1.96,6.537,6.537,0,0,0,2.966.719,6.452,6.452,0,0,0,2.952-.719,7.608,7.608,0,0,0,2.4-1.96,9.346,9.346,0,0,0,1.6-2.909,10.708,10.708,0,0,0,.566-3.564A61.887,61.887,0,0,0,35.66,29.586a50.479,50.479,0,0,0-8.078-15.374A38.385,38.385,0,0,0,15.375,3.817,32.655,32.655,0,0,0,0,0"
        transform="translate(38.245 0)" fill="#ee8472" />
    <g id="Group_37" data-name="Group 37" transform="translate(46.097 121.883)">
        <path id="Path_14" data-name="Path 14"
            d="M6.321,4.983H2.147a1.813,1.813,0,0,1-.816-.2,2.146,2.146,0,0,1-.67-.533A2.6,2.6,0,0,1,.2,3.462a2.926,2.926,0,0,1-.175-.97,2.893,2.893,0,0,1,.152-.971A2.526,2.526,0,0,1,.62.729,2.075,2.075,0,0,1,1.277.2,1.785,1.785,0,0,1,2.089,0H6.266a1.812,1.812,0,0,1,.816.2,2.145,2.145,0,0,1,.67.534,2.6,2.6,0,0,1,.456.792,2.925,2.925,0,0,1,.175.971,2.894,2.894,0,0,1-.153.97,2.528,2.528,0,0,1-.438.792,2.076,2.076,0,0,1-.658.533,1.785,1.785,0,0,1-.811.2"
            transform="translate(4.269 7.484)" fill="#896745" />
        <path id="Path_15" data-name="Path 15"
            d="M10.507,4.991H2.151a1.813,1.813,0,0,1-.816-.2,2.149,2.149,0,0,1-.671-.534,2.608,2.608,0,0,1-.457-.793A2.933,2.933,0,0,1,.031,2.5a2.9,2.9,0,0,1,.152-.972A2.53,2.53,0,0,1,.621.731,2.076,2.076,0,0,1,1.278.2,1.784,1.784,0,0,1,2.09,0h8.361a1.812,1.812,0,0,1,.816.2,2.147,2.147,0,0,1,.67.535,2.605,2.605,0,0,1,.456.793,2.932,2.932,0,0,1,.175.972,2.9,2.9,0,0,1-.153.972,2.533,2.533,0,0,1-.439.793,2.078,2.078,0,0,1-.658.534,1.785,1.785,0,0,1-.812.2"
            fill="#896745" />
    </g>
</svg>