<svg width="20" height="20" viewBox="0 0 20 20" fill="none" xmlns="http://www.w3.org/2000/svg">
<g id="marker-pin-04" clip-path="url(#clip0_996_6768)">
<path id="Icon" d="M4.16699 11.9053C2.62419 12.5859 1.66699 13.5343 1.66699 14.5833C1.66699 16.6544 5.39795 18.3333 10.0003 18.3333C14.6027 18.3333 18.3337 16.6544 18.3337 14.5833C18.3337 13.5343 17.3765 12.5859 15.8337 11.9053M15.0003 6.66663C15.0003 10.053 11.2503 11.6666 10.0003 14.1666C8.75033 11.6666 5.00033 10.053 5.00033 6.66663C5.00033 3.9052 7.2389 1.66663 10.0003 1.66663C12.7617 1.66663 15.0003 3.9052 15.0003 6.66663ZM10.8337 6.66663C10.8337 7.12686 10.4606 7.49996 10.0003 7.49996C9.54009 7.49996 9.16699 7.12686 9.16699 6.66663C9.16699 6.20639 9.54009 5.83329 10.0003 5.83329C10.4606 5.83329 10.8337 6.20639 10.8337 6.66663Z" stroke="#717680" stroke-width="2" stroke-linecap="round" stroke-linejoin="round"/>
</g>
<defs>
<clipPath id="clip0_996_6768">
<rect width="20" height="20" fill="white"/>
</clipPath>
</defs>
</svg>
