<svg width="40" height="40" viewBox="0 0 40 40" fill="none" xmlns="http://www.w3.org/2000/svg">
<g id="elements">
<path id="Vector (Stroke)" fill-rule="evenodd" clip-rule="evenodd" d="M21.6045 30.0375C21.6045 25.3799 25.3802 21.6042 30.0378 21.6042C34.6954 21.6042 38.4712 25.3799 38.4712 30.0375C38.4712 31.7027 37.9886 33.2551 37.1556 34.5626L39.4009 36.8078C40.1168 37.5238 40.1168 38.6846 39.4009 39.4005C38.6849 40.1165 37.5241 40.1165 36.8081 39.4005L34.5629 37.1553C33.2554 37.9883 31.703 38.4709 30.0378 38.4709C25.3802 38.4709 21.6045 34.6951 21.6045 30.0375ZM30.0378 25.2709C27.4053 25.2709 25.2712 27.405 25.2712 30.0375C25.2712 32.6701 27.4053 34.8042 30.0378 34.8042C32.6704 34.8042 34.8045 32.6701 34.8045 30.0375C34.8045 27.405 32.6704 25.2709 30.0378 25.2709Z" fill="#535862"/>
<path id="Vector (Stroke)_2" fill-rule="evenodd" clip-rule="evenodd" d="M17.9375 3.5625C16.7097 3.5625 15.5261 4.07782 12.1487 5.67785L6.92702 8.15154C5.44075 8.85564 4.50961 9.30171 3.92597 9.6875C4.50961 10.0733 5.44075 10.5194 6.92702 11.2235L8.89663 12.1565L22.9146 5.29458C20.1482 3.99429 19.0614 3.5625 17.9375 3.5625ZM26.9784 7.21846L12.9604 14.0804C15.7268 15.3807 16.8136 15.8125 17.9375 15.8125C19.1653 15.8125 20.3489 15.2972 23.7263 13.6972L28.948 11.2235C30.4343 10.5194 31.3654 10.0733 31.949 9.6875C31.3654 9.30171 30.4343 8.85564 28.948 8.15153L26.9784 7.21846ZM10.9541 2.35538C13.8226 0.994751 15.788 0.0625 17.9375 0.0625C20.087 0.0625 22.0524 0.994751 24.9209 2.35538C25.0402 2.41196 25.161 2.46928 25.2835 2.52731L30.6264 5.05841C31.9551 5.68774 33.1267 6.24263 33.9509 6.7877C34.7762 7.33343 35.8125 8.22853 35.8125 9.6875C35.8125 11.1465 34.7762 12.0416 33.9509 12.5873C33.1267 13.1324 31.9551 13.6873 30.6264 14.3166L25.2835 16.8477C25.161 16.9057 25.0402 16.963 24.9209 17.0196C22.0524 18.3803 20.087 19.3125 17.9375 19.3125C15.788 19.3125 13.8226 18.3803 10.9541 17.0196C10.8348 16.963 10.714 16.9057 10.5915 16.8477L5.36984 14.374C5.32929 14.3548 5.28887 14.3356 5.2486 14.3166C3.91987 13.6872 2.74833 13.1324 1.92408 12.5873C1.09883 12.0416 0.0625 11.1465 0.0625 9.6875C0.0625 8.22853 1.09883 7.33343 1.92408 6.7877C2.74833 6.24264 3.91987 5.68776 5.2486 5.05843C5.28887 5.03936 5.32929 5.02021 5.36984 5.001L10.5915 2.52731C10.714 2.46929 10.8348 2.41196 10.9541 2.35538Z" fill="#535862"/>
<path id="Subtract" fill-rule="evenodd" clip-rule="evenodd" d="M18.8542 30.0396C18.8542 23.8632 23.8611 18.8563 30.0375 18.8563C31.4571 18.8563 32.8148 19.1207 34.0643 19.6031C34.9112 19.9301 35.3347 20.0936 35.5736 19.9298C35.8125 19.7659 35.8125 19.3476 35.8125 18.511L35.8125 9.68966C35.8125 9.63596 35.8094 9.58298 35.8034 9.53089C35.7745 9.27939 35.7601 9.15364 35.5109 9.0168C35.2617 8.87996 35.08 8.96815 34.7167 9.14455L29.4299 11.7113L24.0744 14.3028C20.65 15.9598 19.3264 16.5647 17.9375 16.5647C16.5486 16.5647 15.225 15.9598 11.8006 14.3028L6.44506 11.7113L1.1583 9.14455C0.794992 8.96815 0.613337 8.87996 0.364139 9.0168C0.114941 9.15364 0.100483 9.27939 0.071567 9.53089C0.0655779 9.58298 0.0625 9.63596 0.0625 9.68966L0.0625 29.2354C0.0625 31.2894 1.56096 32.6555 3.40527 33.7622C5.27232 34.8826 8.40605 36.2064 11.8767 37.6724C14.4783 38.7723 16.1554 39.4813 17.9375 39.4813C18.8933 39.4813 19.8189 39.2774 20.8732 38.9185C21.5795 38.6781 21.9327 38.5579 22.0127 38.2832C22.0927 38.0084 21.8317 37.6832 21.3099 37.0328C19.7734 35.1176 18.8542 32.686 18.8542 30.0396ZM7.55272 18.5413C6.8735 18.2017 6.04757 18.477 5.70796 19.1562C5.36835 19.8355 5.64366 20.6614 6.32288 21.001L9.98955 22.8343C10.6688 23.1739 11.4947 22.8986 11.8343 22.2194C12.1739 21.5402 11.8986 20.7143 11.2194 20.3746L7.55272 18.5413Z" fill="#535862"/>
</g>
</svg>
