<svg width="25" height="24" viewBox="0 0 25 24" fill="none" xmlns="http://www.w3.org/2000/svg">
<path d="M15.7502 19C15.7502 20.6569 14.4071 22 12.7502 22C11.0934 22 9.75025 20.6569 9.75025 19M14.5468 6.23856C14.9822 5.78864 15.2502 5.17562 15.2502 4.5C15.2502 3.11929 14.131 2 12.7502 2C11.3695 2 10.2502 3.11929 10.2502 4.5C10.2502 5.17562 10.5183 5.78864 10.9537 6.23856M3.29707 8.32296C3.28272 6.87161 4.0652 5.51631 5.32928 4.80306M22.2034 8.32296C22.2178 6.87161 21.4353 5.51631 20.1712 4.80306M18.7502 11.2C18.7502 9.82087 18.1181 8.49823 16.9929 7.52304C15.8677 6.54786 14.3415 6 12.7502 6C11.1589 6 9.63283 6.54786 8.50761 7.52304C7.38239 8.49823 6.75025 9.82087 6.75025 11.2C6.75025 13.4818 6.18438 15.1506 5.47831 16.3447C4.67359 17.7056 4.27122 18.3861 4.28711 18.5486C4.30529 18.7346 4.33876 18.7933 4.48959 18.9036C4.62142 19 5.28376 19 6.60844 19H18.8921C20.2167 19 20.8791 19 21.0109 18.9036C21.1617 18.7933 21.1952 18.7346 21.2134 18.5486C21.2293 18.3861 20.8269 17.7056 20.0222 16.3447C19.3161 15.1506 18.7502 13.4818 18.7502 11.2Z" stroke="#717680" stroke-width="1.5" stroke-linecap="round" stroke-linejoin="round"/>
</svg>
