<svg width="22" height="18" viewBox="0 0 22 18" fill="none" xmlns="http://www.w3.org/2000/svg">
<g id="elements">
<path id="Vector (Stroke)" fill-rule="evenodd" clip-rule="evenodd" d="M0 5C0 4.44772 0.447715 4 1 4H7C7.55228 4 8 4.44772 8 5C8 5.55228 7.55228 6 7 6H1C0.447715 6 0 5.55228 0 5ZM0 8C0 7.44772 0.447715 7 1 7H5C5.55228 7 6 7.44772 6 8C6 8.55228 5.55228 9 5 9H1C0.447715 9 0 8.55228 0 8Z" fill="#DC6803"/>
<path id="Subtract" fill-rule="evenodd" clip-rule="evenodd" d="M9.44824 0.250035C10.4314 0.249647 11.103 0.249383 11.6706 0.433723C12.5142 0.707686 13.2234 1.26737 13.6863 2.00109L15.134 2.00109C15.8222 2.00106 16.4116 2.00104 16.9006 2.05039C17.4232 2.10314 17.912 2.21811 18.3785 2.49659C18.845 2.77507 19.178 3.15069 19.4723 3.58564C19.7476 3.99257 20.027 4.51122 20.3532 5.11683L21.6535 7.53042C21.7327 7.67744 21.7714 7.83543 21.7733 7.99158L21.7734 8.00488V10.0599C21.7735 11.1934 21.7735 12.1197 21.6751 12.851C21.5723 13.6154 21.3497 14.2782 20.8204 14.8072C20.6205 15.007 20.401 15.1634 20.1634 15.2863C20.0702 15.3345 20.0236 15.3586 19.9789 15.3602C19.8998 15.3632 19.8239 15.317 19.7902 15.2455C19.7712 15.205 19.7712 15.1398 19.7712 15.0093C19.7712 12.9369 18.0903 11.257 16.0168 11.257C13.9434 11.257 12.2625 12.9369 12.2625 15.0093C12.2625 15.0955 12.2654 15.181 12.2711 15.2658C12.2873 15.5048 12.2953 15.6242 12.2357 15.6878C12.176 15.7513 12.0656 15.7508 11.8449 15.7498L10.1734 15.7421C9.95518 15.7411 9.84606 15.7406 9.78705 15.6773C9.72804 15.614 9.73583 15.4959 9.7514 15.2596C9.75685 15.1769 9.75962 15.0934 9.75962 15.0093C9.75962 12.9369 8.07875 11.257 6.00529 11.257C3.93184 11.257 2.25097 12.9369 2.25097 15.0093C2.25097 15.1398 2.25097 15.205 2.23189 15.2455C2.19819 15.3171 2.12233 15.3632 2.04328 15.3603C1.99852 15.3586 1.95192 15.3345 1.85873 15.2863C1.6211 15.1635 1.40157 15.007 1.20164 14.8072C0.49997 14.1059 0.332939 13.1633 0.277151 12.0447C0.276561 12.0329 0.276251 12.0211 0.276222 12.0092L0.273543 10.9403C0.272953 10.7047 0.272657 10.5869 0.336927 10.5273C0.401196 10.4677 0.53518 10.4781 0.803147 10.4989C0.867946 10.5039 0.933438 10.5065 0.999528 10.5065H5.00414C6.38645 10.5065 7.50702 9.38652 7.50702 8.00495C7.50702 7.76119 7.50702 7.63931 7.53496 7.57918C7.55271 7.54098 7.5573 7.5341 7.58574 7.50302C7.63051 7.4541 7.74348 7.40699 7.96941 7.31279C8.87373 6.93572 9.50933 6.04359 9.50933 5.00309C9.50933 3.62152 8.38875 2.50154 7.00645 2.50154H0.999528C0.78739 2.50154 0.681321 2.50154 0.627822 2.46126C0.589854 2.43267 0.565201 2.39531 0.553857 2.34917C0.537871 2.28416 0.571217 2.20635 0.637909 2.05071C0.770646 1.74095 0.952938 1.45804 1.20504 1.20545C1.73465 0.674785 2.39891 0.451709 3.1652 0.348639C3.89835 0.250026 4.82721 0.250046 5.96399 0.25007L9.44824 0.250035ZM18.5602 7.25441C18.8595 7.25441 19.0091 7.25441 19.0674 7.15691C19.1257 7.05941 19.0547 6.92774 18.9128 6.66441L18.6127 6.10723C18.2578 5.44854 18.0256 5.02 17.8136 4.70665C17.6143 4.41202 17.4781 4.29014 17.3517 4.21469C17.2254 4.13924 17.0535 4.07724 16.6994 4.04151C16.3228 4.0035 15.8352 4.00233 15.0867 4.00233H14.6694C14.4745 4.00233 14.377 4.00233 14.3182 4.06185C14.2594 4.12136 14.2606 4.22048 14.2632 4.41872C14.2657 4.61756 14.2653 4.81646 14.265 5.01531L14.2648 5.20314C14.2648 6.00653 14.274 6.23024 14.326 6.39015C14.4498 6.77093 14.7485 7.06947 15.1295 7.1932C15.2895 7.24515 15.5133 7.25441 16.3171 7.25441H18.5602Z" fill="#DC6803"/>
<circle id="Ellipse 1651" cx="16" cy="15" r="2.5" fill="#DC6803"/>
<circle id="Ellipse 1652" cx="6" cy="15" r="2.5" fill="#DC6803"/>
</g>
</svg>
