<svg width="25" height="24" viewBox="0 0 25 24" fill="none" xmlns="http://www.w3.org/2000/svg">
<path d="M20.75 7.27832L12.25 12.0005M12.25 12.0005L3.74997 7.27832M12.25 12.0005L12.25 21.5006M21.25 16.0591L21.25 7.94202C21.25 7.59937 21.25 7.42805 21.1995 7.27526C21.1549 7.14008 21.0818 7.016 20.9854 6.91131C20.8763 6.79297 20.7266 6.70977 20.427 6.54337L13.027 2.43225C12.7434 2.2747 12.6016 2.19592 12.4515 2.16503C12.3185 2.1377 12.1815 2.1377 12.0486 2.16503C11.8984 2.19592 11.7566 2.2747 11.473 2.43226L4.07297 6.54337C3.77345 6.70977 3.62369 6.79297 3.51463 6.91131C3.41816 7.016 3.34515 7.14008 3.30048 7.27526C3.25 7.42806 3.25 7.59938 3.25 7.94202L3.25 16.0591C3.25 16.4018 3.25 16.5731 3.30048 16.7259C3.34515 16.8611 3.41816 16.9851 3.51463 17.0898C3.62369 17.2082 3.77345 17.2914 4.07297 17.4578L11.473 21.5689C11.7566 21.7264 11.8984 21.8052 12.0486 21.8361C12.1815 21.8634 12.3185 21.8634 12.4515 21.8361C12.6016 21.8052 12.7434 21.7264 13.027 21.5689L20.427 17.4578C20.7266 17.2914 20.8763 17.2082 20.9854 17.0898C21.0818 16.9851 21.1549 16.8611 21.1995 16.7259C21.25 16.5731 21.25 16.4018 21.25 16.0591Z" stroke="#717680" stroke-width="1.5" stroke-linecap="round" stroke-linejoin="round"/>
<path d="M16.75 9.5L7.75 4.5" stroke="#717680" stroke-width="2" stroke-linecap="round" stroke-linejoin="round"/>
</svg>
