<svg width="153" height="152" viewBox="0 0 153 152" fill="none" xmlns="http://www.w3.org/2000/svg">
<g clip-path="url(#clip0_83_6093)">
<path fill-rule="evenodd" clip-rule="evenodd" d="M101.64 37.7199C101.64 33.8199 98.4499 30.6299 94.5499 30.6299H54.4499C50.5499 30.6299 47.3599 33.8199 47.3599 37.7199V40.2899H101.61L101.64 37.7199ZM83.0299 36.8199H66.0299C65.2199 36.8199 64.5699 36.1699 64.5699 35.3599C64.5699 34.5499 65.2199 33.8999 66.0299 33.8999H83.0299C83.8399 33.8999 84.4899 34.5499 84.4899 35.3599C84.4899 36.1699 83.8399 36.8199 83.0299 36.8199ZM92.2599 72.3699H101.64V101.23H47.3899V43.2299H101.64V48.4899H79.6499C74.7299 48.4899 70.7299 52.4799 70.7299 57.4099V63.4799C70.7299 68.3999 74.7299 72.3999 79.6499 72.3999H80.9499V80.1699C80.9499 80.7599 81.2899 81.2799 81.8499 81.5299C82.0399 81.5899 82.2199 81.6499 82.4099 81.6499C82.7799 81.6499 83.1499 81.4999 83.4299 81.2199L92.2599 72.3599V72.3699ZM113.35 51.4099H79.6899C76.3799 51.4099 73.7099 54.0999 73.7099 57.3899V63.4599C73.7099 66.7699 76.3999 69.4399 79.6899 69.4399H82.4499C83.2599 69.4399 83.9099 70.0899 83.9099 70.8999V76.6299L90.6599 69.8799C90.9399 69.5999 91.3099 69.4499 91.6799 69.4499H113.36C116.67 69.4499 119.34 66.7599 119.34 63.4699V57.3999C119.34 54.1199 116.65 51.4199 113.36 51.4199L113.35 51.4099ZM87.4599 61.0999C88.1099 61.5999 88.2299 62.4899 87.7699 63.1399C87.4899 63.5399 87.0299 63.7299 86.5899 63.7299C86.2799 63.7299 85.9699 63.6399 85.7199 63.4499L84.8199 62.7699V63.8499C84.8199 64.6599 84.1699 65.3099 83.3599 65.3099C82.5499 65.3099 81.8999 64.6599 81.8999 63.8499V62.7699L81.0299 63.4199C80.7799 63.6099 80.4699 63.6999 80.1599 63.6999C79.7299 63.6999 79.2599 63.4799 78.9799 63.1099C78.5199 62.4599 78.6399 61.5599 79.2899 61.0699L80.9299 59.8599L79.2899 58.6499C78.6399 58.1499 78.5199 57.2599 78.9799 56.6099C79.4799 55.9599 80.3699 55.8399 81.0199 56.2999L81.8899 56.9499V55.8399C81.8899 55.0299 82.5399 54.3799 83.3499 54.3799C84.1599 54.3799 84.8099 55.0299 84.8099 55.8399V56.9499L85.7099 56.2699C86.3599 55.7699 87.2599 55.9299 87.7499 56.5799C88.2099 57.2299 88.0899 58.1299 87.4399 58.6199L85.7999 59.8299L87.4399 61.0999H87.4599ZM100.87 63.1399C100.59 63.5099 100.16 63.7299 99.6899 63.7299C99.3799 63.7299 99.0699 63.6399 98.8199 63.4499L97.9499 62.7999V63.8799C97.9499 64.6899 97.2999 65.3399 96.4899 65.3399C95.6799 65.3399 95.0299 64.6899 95.0299 63.8799V62.7999L94.1599 63.4499C93.9099 63.6399 93.5999 63.7299 93.2899 63.7299C92.8599 63.7299 92.3899 63.5099 92.1099 63.1399C91.6499 62.4899 91.7699 61.5899 92.4199 61.0999L94.0599 59.8899L92.4199 58.6799C91.7699 58.1799 91.6499 57.2899 92.1099 56.6399C92.6099 55.9899 93.4999 55.8699 94.1499 56.3299L95.0199 56.9799V55.8699C95.0199 55.0599 95.6699 54.4099 96.4799 54.4099C97.2899 54.4099 97.9399 55.0599 97.9399 55.8699V56.9799L98.8099 56.3299C99.4599 55.8299 100.36 55.9899 100.85 56.6399C101.34 57.2899 101.19 58.1899 100.54 58.6799L98.8999 59.8899L100.54 61.0999C101.19 61.5599 101.31 62.4899 100.85 63.1399H100.87ZM113.69 61.0999C114.34 61.5999 114.46 62.4899 114 63.1399C113.72 63.5099 113.29 63.7299 112.82 63.7299C112.51 63.7299 112.2 63.6399 111.95 63.4499L111.08 62.7999V63.8799C111.08 64.6899 110.43 65.3399 109.62 65.3399C108.81 65.3399 108.16 64.6899 108.16 63.8799V62.7999L107.29 63.4499C107.04 63.6399 106.73 63.7299 106.42 63.7299C105.99 63.7299 105.52 63.5099 105.24 63.1399C104.78 62.4899 104.9 61.5899 105.55 61.0999L107.19 59.8899L105.55 58.6799C104.9 58.1799 104.78 57.2899 105.24 56.6399C105.74 55.9899 106.63 55.8699 107.28 56.3299L108.15 56.9799V55.8699C108.15 55.0599 108.8 54.4099 109.61 54.4099C110.42 54.4099 111.07 55.0599 111.07 55.8699V56.9799L111.94 56.3299C112.59 55.8299 113.49 55.9899 113.98 56.6399C114.48 57.2899 114.32 58.1899 113.67 58.6799L112.03 59.8899L113.67 61.0999H113.69ZM47.3899 114.02C47.3899 117.92 50.5799 121.11 54.4799 121.11H94.5799C98.4799 121.11 101.67 117.92 101.67 114.02V104.14H47.3799V114.02H47.3899ZM70.2099 106.31H78.8199C82.2899 106.31 85.1399 109.13 85.1399 112.63C85.1399 116.13 82.2899 118.92 78.8199 118.92H70.2099C66.7399 118.92 63.8899 116.1 63.8899 112.6C63.8899 109.1 66.7399 106.31 70.2099 106.31ZM66.8299 112.63C66.8299 110.77 68.3499 109.22 70.2399 109.22H78.8199C80.6799 109.22 82.2299 110.74 82.2299 112.63C82.2299 114.52 80.7099 116.01 78.8199 116.01H70.2099C68.3499 116.01 66.8299 114.49 66.8299 112.63Z" fill="#E18541"/>
<path d="M76.4999 0C97.4599 0 116.42 8.49 130.14 22.23C143.86 35.95 152.37 54.93 152.37 75.87C152.37 96.81 143.89 115.79 130.14 129.51C116.42 143.26 97.4699 151.74 76.4999 151.74C55.5299 151.74 36.5799 143.25 22.8599 129.51C9.14988 115.79 0.629883 96.83 0.629883 75.87C0.629883 54.91 9.14988 35.95 22.8599 22.23C36.5799 8.49 55.5699 0 76.4999 0ZM127.75 24.62C114.65 11.49 96.5299 3.41 76.4999 3.41C56.4699 3.41 38.3799 11.49 25.2499 24.62C12.1499 37.75 4.03988 55.87 4.03988 75.87C4.03988 95.87 12.1499 113.99 25.2799 127.12C38.3799 140.25 56.4999 148.33 76.4999 148.33C96.4999 148.33 114.62 140.22 127.75 127.09C140.88 113.96 148.99 95.84 148.99 75.84C148.99 55.84 140.88 37.75 127.75 24.62Z" fill="#E18541"/>
</g>
<defs>
<clipPath id="clip0_83_6093">
<rect width="151.74" height="151.74" fill="white" transform="translate(0.629883)"/>
</clipPath>
</defs>
</svg>
