<svg width="20" height="16" viewBox="0 0 20 16" fill="none" xmlns="http://www.w3.org/2000/svg">
<path d="M18.3333 6.5184V4.18507C18.3333 3.25165 18.3333 2.78494 18.1516 2.42842C17.9918 2.11481 17.7369 1.85985 17.4233 1.70006C17.0668 1.5184 16.6 1.5184 15.6666 1.5184H4.33329C3.39987 1.5184 2.93316 1.5184 2.57664 1.70006C2.26304 1.85985 2.00807 2.11481 1.84828 2.42842C1.66663 2.78494 1.66663 3.25165 1.66663 4.18507V7.18507C1.66663 8.11849 1.66663 8.5852 1.84828 8.94172C2.00807 9.25532 2.26304 9.51029 2.57664 9.67008C2.93316 9.85174 3.39987 9.85174 4.33329 9.85174H9.16663M9.99996 5.68507H10.0041M14.1666 5.68507H14.1708M5.83329 5.68507H5.83746M16.0416 11.5184V10.0601C16.0416 9.25465 15.3887 8.60174 14.5833 8.60174C13.7779 8.60174 13.125 9.25465 13.125 10.0601V11.5184M10.2083 5.68507C10.2083 5.80013 10.115 5.8934 9.99996 5.8934C9.8849 5.8934 9.79163 5.80013 9.79163 5.68507C9.79163 5.57001 9.8849 5.47674 9.99996 5.47674C10.115 5.47674 10.2083 5.57001 10.2083 5.68507ZM14.375 5.68507C14.375 5.80013 14.2817 5.8934 14.1666 5.8934C14.0516 5.8934 13.9583 5.80013 13.9583 5.68507C13.9583 5.57001 14.0516 5.47674 14.1666 5.47674C14.2817 5.47674 14.375 5.57001 14.375 5.68507ZM6.04163 5.68507C6.04163 5.80013 5.94835 5.8934 5.83329 5.8934C5.71823 5.8934 5.62496 5.80013 5.62496 5.68507C5.62496 5.57001 5.71823 5.47674 5.83329 5.47674C5.94835 5.47674 6.04163 5.57001 6.04163 5.68507ZM13 14.8517H16.1666C16.6333 14.8517 16.8667 14.8517 17.045 14.7609C17.2018 14.681 17.3292 14.5535 17.4091 14.3967C17.5 14.2185 17.5 13.9851 17.5 13.5184V12.8517C17.5 12.385 17.5 12.1517 17.4091 11.9734C17.3292 11.8166 17.2018 11.6891 17.045 11.6092C16.8667 11.5184 16.6333 11.5184 16.1666 11.5184H13C12.5332 11.5184 12.2999 11.5184 12.1216 11.6092C11.9648 11.6891 11.8373 11.8166 11.7575 11.9734C11.6666 12.1517 11.6666 12.385 11.6666 12.8517V13.5184C11.6666 13.9851 11.6666 14.2185 11.7575 14.3967C11.8373 14.5535 11.9648 14.681 12.1216 14.7609C12.2999 14.8517 12.5332 14.8517 13 14.8517Z" stroke="#717680" stroke-width="1.66667" stroke-linecap="round" stroke-linejoin="round"/>
</svg>
