<svg width="23" height="22" viewBox="0 0 23 22" fill="none" xmlns="http://www.w3.org/2000/svg">
<g id="elements">
<path id="Vector (Stroke)" fill-rule="evenodd" clip-rule="evenodd" d="M10.5 2.15909C9.83029 2.15909 9.1847 2.44018 7.34245 3.31292L4.49428 4.6622C3.68359 5.04626 3.1757 5.28957 2.85735 5.5C3.1757 5.71043 3.68359 5.95374 4.49428 6.3378L5.56862 6.84675L13.2148 3.10386C11.7059 2.39461 11.113 2.15909 10.5 2.15909ZM15.4314 4.15325L7.7852 7.89613C9.29415 8.60539 9.88697 8.84091 10.5 8.84091C11.1697 8.84091 11.8153 8.55982 13.6575 7.68708L16.5057 6.3378C17.3164 5.95374 17.8243 5.71043 18.1427 5.5C17.8243 5.28957 17.3164 5.04626 16.5057 4.6622L15.4314 4.15325ZM6.69088 1.50066C8.25551 0.7585 9.32754 0.25 10.5 0.25C11.6725 0.25 12.7445 0.758501 14.3091 1.50066C14.3742 1.53152 14.4401 1.56279 14.5069 1.59444L17.4212 2.97504C18.146 3.31831 18.785 3.62098 19.2346 3.91829C19.6847 4.21596 20.25 4.7042 20.25 5.5C20.25 6.2958 19.6847 6.78404 19.2346 7.08171C18.785 7.37902 18.146 7.68169 17.4212 8.02496L14.5069 9.40556C14.4401 9.43721 14.3742 9.46848 14.3091 9.49934C12.7445 10.2415 11.6725 10.75 10.5 10.75C9.32754 10.75 8.25552 10.2415 6.69089 9.49934C6.62582 9.46848 6.5599 9.43721 6.49309 9.40556L3.64491 8.05627C3.62279 8.04579 3.60075 8.03535 3.57878 8.02495C2.85402 7.68168 2.215 7.37902 1.76541 7.08171C1.31527 6.78404 0.75 6.2958 0.75 5.5C0.75 4.7042 1.31527 4.21596 1.76541 3.91829C2.215 3.62098 2.85402 3.31832 3.57878 2.97505C3.60075 2.96465 3.62279 2.95421 3.64491 2.94373L6.49309 1.59444C6.5599 1.56279 6.62581 1.53153 6.69088 1.50066Z" fill="#1570EF"/>
<path id="Subtract" fill-rule="evenodd" clip-rule="evenodd" d="M11.25 17.0023C11.25 13.5505 14.0482 10.7523 17.5 10.7523C18.1464 10.7523 18.7698 10.8504 19.3563 11.0326C19.7893 11.1671 20.0058 11.2343 20.1279 11.1444C20.25 11.0545 20.25 10.8448 20.25 10.4254L20.25 5.50232C20.25 5.47303 20.2483 5.44413 20.2451 5.41572C20.2293 5.27854 20.2214 5.20995 20.0855 5.13531C19.9495 5.06067 19.8505 5.10877 19.6523 5.20499L16.7686 6.60505L13.8474 8.01859C11.9796 8.92242 11.2576 9.25232 10.5 9.25232C9.74241 9.25232 9.02044 8.92242 7.1526 8.01859L4.2314 6.60505L1.34771 5.20499C1.14954 5.10877 1.05046 5.06067 0.91453 5.13531C0.778604 5.20995 0.770718 5.27854 0.754946 5.41572C0.751679 5.44413 0.75 5.47303 0.75 5.50232L0.75 16.1636C0.75 17.284 1.56734 18.0292 2.57333 18.6328C3.59172 19.2439 5.30103 19.966 7.19413 20.7657C8.61317 21.3656 9.52796 21.7523 10.5 21.7523C11.0024 21.7523 11.4895 21.649 12.0388 21.4664C12.3908 21.3493 12.5669 21.2908 12.6149 21.1498C12.6629 21.0088 12.5469 20.837 12.3151 20.4933C11.6426 19.4965 11.25 18.2952 11.25 17.0023ZM4.83557 10.3305C4.46509 10.1453 4.01459 10.2954 3.82934 10.6659C3.6441 11.0364 3.79427 11.4869 4.16475 11.6721L6.16475 12.6721C6.53524 12.8574 6.98574 12.7072 7.17098 12.3367C7.35623 11.9662 7.20606 11.5157 6.83557 11.3305L4.83557 10.3305Z" fill="#1570EF"/>
<path id="Subtract_2" fill-rule="evenodd" clip-rule="evenodd" d="M17.5 12.25C14.8766 12.25 12.75 14.3766 12.75 17C12.75 19.6234 14.8766 21.75 17.5 21.75C20.1234 21.75 22.25 19.6234 22.25 17C22.25 14.3766 20.1234 12.25 17.5 12.25ZM19.1128 16.8009C19.5033 16.4103 19.5033 15.7772 19.1128 15.3866C18.7222 14.9961 18.0891 14.9961 17.6985 15.3866L16.7929 16.2923C16.4024 16.6828 16.4024 17.316 16.7929 17.7065C17.1834 18.097 17.8166 18.097 18.2071 17.7065L19.1128 16.8009Z" fill="#1570EF"/>
</g>
</svg>
