<svg width="20" height="21" viewBox="0 0 20 21" fill="none" xmlns="http://www.w3.org/2000/svg">
<g clip-path="url(#clip0_6_21450)">
<path d="M11.7081 5.2997C12.522 5.45851 13.2701 5.85658 13.8565 6.44298C14.4429 7.02938 14.8409 7.77742 14.9997 8.59137M11.7081 1.96637C13.3991 2.15423 14.9761 2.91152 16.1799 4.11388C17.3838 5.31624 18.1431 6.89221 18.3331 8.58304M8.52222 11.8523C7.52091 10.8509 6.73025 9.71874 6.15025 8.51073C6.10036 8.40682 6.07542 8.35487 6.05625 8.28912C5.98815 8.05549 6.03707 7.76861 6.17874 7.57075C6.21861 7.51508 6.26624 7.46745 6.3615 7.37219C6.65284 7.08085 6.79851 6.93518 6.89375 6.7887C7.25291 6.23629 7.25291 5.52414 6.89375 4.97173C6.79851 4.82525 6.65284 4.67958 6.3615 4.38824L6.19911 4.22585C5.75624 3.78298 5.53481 3.56155 5.29699 3.44126C4.82402 3.20203 4.26547 3.20203 3.7925 3.44126C3.55468 3.56155 3.33325 3.78298 2.89038 4.22585L2.75902 4.35721C2.31767 4.79856 2.09699 5.01924 1.92845 5.31927C1.74143 5.65219 1.60696 6.16926 1.6081 6.55112C1.60912 6.89524 1.67588 7.13042 1.80938 7.6008C2.52686 10.1286 3.88059 12.5139 5.87057 14.5039C7.86055 16.4939 10.2459 17.8476 12.7737 18.5651C13.2441 18.6986 13.4792 18.7654 13.8234 18.7664C14.2052 18.7675 14.7223 18.633 15.0552 18.446C15.3552 18.2775 15.5759 18.0568 16.0173 17.6155L16.1486 17.4841C16.5915 17.0412 16.8129 16.8198 16.9332 16.582C17.1724 16.109 17.1724 15.5505 16.9332 15.0775C16.8129 14.8397 16.5915 14.6182 16.1486 14.1754L15.9862 14.013C15.6949 13.7216 15.5492 13.576 15.4028 13.4807C14.8503 13.1216 14.1382 13.1216 13.5858 13.4807C13.4393 13.576 13.2936 13.7216 13.0023 14.013C12.907 14.1082 12.8594 14.1559 12.8037 14.1957C12.6059 14.3374 12.319 14.3863 12.0854 14.3182C12.0196 14.2991 11.9677 14.2741 11.8638 14.2242C10.6557 13.6442 9.52354 12.8536 8.52222 11.8523Z" stroke="#717680" stroke-width="2" stroke-linecap="round" stroke-linejoin="round"/>
</g>
<defs>
<clipPath id="clip0_6_21450">
<rect width="20" height="20" fill="white" transform="translate(0 0.299683)"/>
</clipPath>
</defs>
</svg>
