<svg width="13" height="16" viewBox="0 0 13 16" fill="none" xmlns="http://www.w3.org/2000/svg">
<g id="elements">
<path id="Vector 5373" d="M1.05957 9.33301H2.65612C2.85221 9.33301 3.04562 9.37719 3.22102 9.46205L4.58233 10.1207C4.75773 10.2056 4.95114 10.2498 5.14724 10.2498H5.84232C6.51459 10.2498 7.05957 10.7771 7.05957 11.4277C7.05957 11.454 7.04156 11.4771 7.01543 11.4843L5.32149 11.9526C5.01761 12.0367 4.69224 12.0074 4.40957 11.8706L2.95431 11.1665" stroke="#717680" stroke-width="1.5" stroke-linecap="round" stroke-linejoin="round"/>
<path id="Vector 5374" d="M7.05957 11L10.1214 10.0593C10.6642 9.89016 11.251 10.0907 11.591 10.5615C11.8368 10.902 11.7367 11.3895 11.3785 11.5961L6.36816 14.487C6.04948 14.6709 5.67353 14.7157 5.32301 14.6117L1.05957 13.3466" stroke="#717680" stroke-width="1.5" stroke-linecap="round" stroke-linejoin="round"/>
<path id="Vector 5346" d="M8.39258 7.99967H7.05924C5.80217 7.99967 5.17363 7.99967 4.7831 7.60915C4.39258 7.21863 4.39258 6.59009 4.39258 5.33301V3.99967C4.39258 2.7426 4.39258 2.11406 4.7831 1.72353C5.17363 1.33301 5.80217 1.33301 7.05924 1.33301H8.39258C9.64966 1.33301 10.2782 1.33301 10.6687 1.72353C11.0592 2.11406 11.0592 2.7426 11.0592 3.99967V5.33301C11.0592 6.59009 11.0592 7.21863 10.6687 7.60915C10.2782 7.99967 9.64966 7.99967 8.39258 7.99967Z" stroke="#717680" stroke-width="1.5" stroke-linecap="round" stroke-linejoin="round"/>
<path id="Vector 6156" d="M7.05957 3.33301H8.3929" stroke="#717680" stroke-width="1.5" stroke-linecap="round" stroke-linejoin="round"/>
</g>
</svg>
