<svg width="20" height="21" viewBox="0 0 20 21" fill="none" xmlns="http://www.w3.org/2000/svg">
<path d="M11.6666 2.19116V5.63328C11.6666 6.09999 11.6666 6.33334 11.7575 6.5116C11.8374 6.66841 11.9649 6.79589 12.1217 6.87578C12.2999 6.96661 12.5333 6.96661 13 6.96661H16.4421M11.6666 14.4666H6.66665M13.3333 11.1332H6.66665M16.6666 8.62341V14.6332C16.6666 16.0334 16.6666 16.7334 16.3942 17.2682C16.1545 17.7386 15.772 18.1211 15.3016 18.3607C14.7668 18.6332 14.0668 18.6332 12.6666 18.6332H7.33331C5.93318 18.6332 5.23312 18.6332 4.69834 18.3607C4.22793 18.1211 3.84548 17.7386 3.6058 17.2682C3.33331 16.7334 3.33331 16.0334 3.33331 14.6332V5.96655C3.33331 4.56642 3.33331 3.86636 3.6058 3.33158C3.84548 2.86117 4.22793 2.47872 4.69834 2.23904C5.23312 1.96655 5.93318 1.96655 7.33331 1.96655H10.0098C10.6213 1.96655 10.927 1.96655 11.2147 2.03563C11.4698 2.09687 11.7137 2.19788 11.9374 2.33495C12.1897 2.48956 12.4058 2.70575 12.8382 3.13813L15.4951 5.79498C15.9275 6.22736 16.1436 6.44355 16.2982 6.69584C16.4353 6.91952 16.5363 7.16338 16.5976 7.41847C16.6666 7.70619 16.6666 8.01193 16.6666 8.62341Z" stroke="#717680" stroke-width="1.66667" stroke-linecap="round" stroke-linejoin="round"/>
</svg>

