<svg width="17" height="20" viewBox="0 0 17 20" fill="none" xmlns="http://www.w3.org/2000/svg">
<path d="M14.6673 10.4165V5.6665C14.6673 4.26637 14.6673 3.56631 14.3948 3.03153C14.1552 2.56112 13.7727 2.17867 13.3023 1.93899C12.7675 1.6665 12.0674 1.6665 10.6673 1.6665H5.33398C3.93385 1.6665 3.23379 1.6665 2.69901 1.93899C2.2286 2.17867 1.84615 2.56112 1.60647 3.03153C1.33398 3.56631 1.33398 4.26637 1.33398 5.6665V14.3332C1.33398 15.7333 1.33398 16.4334 1.60647 16.9681C1.84615 17.4386 2.2286 17.821 2.69901 18.0607C3.23379 18.3332 3.93385 18.3332 5.33398 18.3332H8.00065M9.66732 9.1665H4.66732M6.33398 12.4998H4.66732M11.334 5.83317H4.66732M10.084 15.8332L11.7507 17.4998L15.5007 13.7498" stroke="#717680" stroke-width="1.66667" stroke-linecap="round" stroke-linejoin="round"/>
</svg>
