<svg width="45" height="44" viewBox="0 0 45 44" fill="none" xmlns="http://www.w3.org/2000/svg">
<g filter="url(#filter0_dii_208_2614)">
<path d="M2.5 9C2.5 4.58172 6.08172 1 10.5 1H34.5C38.9183 1 42.5 4.58172 42.5 9V33C42.5 37.4183 38.9183 41 34.5 41H10.5C6.08172 41 2.5 37.4183 2.5 33V9Z" fill="white"/>
<path d="M3 9C3 4.85786 6.35786 1.5 10.5 1.5H34.5C38.6421 1.5 42 4.85786 42 9V33C42 37.1421 38.6421 40.5 34.5 40.5H10.5C6.35786 40.5 3 37.1421 3 33V9Z" stroke="#E9EAEB"/>
<path d="M19.1666 24.3333L22.5 21M22.5 21L25.8333 24.3333M22.5 21V28.5M29.1666 24.9524C30.1845 24.1117 30.8333 22.8399 30.8333 21.4167C30.8333 18.8854 28.7813 16.8333 26.25 16.8333C26.0679 16.8333 25.8975 16.7383 25.8051 16.5814C24.7183 14.7374 22.712 13.5 20.4166 13.5C16.9648 13.5 14.1666 16.2982 14.1666 19.75C14.1666 21.4718 14.8628 23.0309 15.9891 24.1613" stroke="#414651" stroke-width="1.66667" stroke-linecap="round" stroke-linejoin="round"/>
</g>
<defs>
<filter id="filter0_dii_208_2614" x="0.5" y="0" width="44" height="44" filterUnits="userSpaceOnUse" color-interpolation-filters="sRGB">
<feFlood flood-opacity="0" result="BackgroundImageFix"/>
<feColorMatrix in="SourceAlpha" type="matrix" values="0 0 0 0 0 0 0 0 0 0 0 0 0 0 0 0 0 0 127 0" result="hardAlpha"/>
<feOffset dy="1"/>
<feGaussianBlur stdDeviation="1"/>
<feComposite in2="hardAlpha" operator="out"/>
<feColorMatrix type="matrix" values="0 0 0 0 0.0392157 0 0 0 0 0.0496732 0 0 0 0 0.0705882 0 0 0 0.05 0"/>
<feBlend mode="normal" in2="BackgroundImageFix" result="effect1_dropShadow_208_2614"/>
<feBlend mode="normal" in="SourceGraphic" in2="effect1_dropShadow_208_2614" result="shape"/>
<feColorMatrix in="SourceAlpha" type="matrix" values="0 0 0 0 0 0 0 0 0 0 0 0 0 0 0 0 0 0 127 0" result="hardAlpha"/>
<feOffset dy="-2"/>
<feComposite in2="hardAlpha" operator="arithmetic" k2="-1" k3="1"/>
<feColorMatrix type="matrix" values="0 0 0 0 0.0392157 0 0 0 0 0.0496732 0 0 0 0 0.0705882 0 0 0 0.05 0"/>
<feBlend mode="normal" in2="shape" result="effect2_innerShadow_208_2614"/>
<feColorMatrix in="SourceAlpha" type="matrix" values="0 0 0 0 0 0 0 0 0 0 0 0 0 0 0 0 0 0 127 0" result="hardAlpha"/>
<feMorphology radius="1" operator="erode" in="SourceAlpha" result="effect3_innerShadow_208_2614"/>
<feOffset/>
<feComposite in2="hardAlpha" operator="arithmetic" k2="-1" k3="1"/>
<feColorMatrix type="matrix" values="0 0 0 0 0.0392157 0 0 0 0 0.0496732 0 0 0 0 0.0705882 0 0 0 0.18 0"/>
<feBlend mode="normal" in2="effect2_innerShadow_208_2614" result="effect3_innerShadow_208_2614"/>
</filter>
</defs>
</svg>
