<svg width="32" height="24" viewBox="0 0 32 24" fill="none" xmlns="http://www.w3.org/2000/svg">
<path fill-rule="evenodd" clip-rule="evenodd" d="M0 0.5H32V24.5H0V0.5Z" fill="#F7FCFF"/>
<path fill-rule="evenodd" clip-rule="evenodd" d="M0 15.1665V17.1665H32V15.1665H0Z" fill="#E31D1C"/>
<path fill-rule="evenodd" clip-rule="evenodd" d="M0 18.8335V20.8335H32V18.8335H0Z" fill="#E31D1C"/>
<path fill-rule="evenodd" clip-rule="evenodd" d="M0 7.8335V9.8335H32V7.8335H0Z" fill="#E31D1C"/>
<path fill-rule="evenodd" clip-rule="evenodd" d="M0 22.5V24.5H32V22.5H0Z" fill="#E31D1C"/>
<path fill-rule="evenodd" clip-rule="evenodd" d="M0 11.5V13.5H32V11.5H0Z" fill="#E31D1C"/>
<path fill-rule="evenodd" clip-rule="evenodd" d="M0 0.5V2.5H32V0.5H0Z" fill="#E31D1C"/>
<path fill-rule="evenodd" clip-rule="evenodd" d="M0 4.1665V6.1665H32V4.1665H0Z" fill="#E31D1C"/>
<rect y="0.5" width="20" height="13" fill="#2E42A5"/>
<path fill-rule="evenodd" clip-rule="evenodd" d="M1.72123 3.43871L0.995355 3.94759L1.24042 3.04198L0.595703 2.46807H1.43779L1.72022 1.729L2.05139 2.46807H2.76925L2.20521 3.04198L2.42357 3.94759L1.72123 3.43871ZM5.72123 3.43871L4.99535 3.94759L5.24042 3.04198L4.5957 2.46807H5.43779L5.72022 1.729L6.05139 2.46807H6.76925L6.20521 3.04198L6.42357 3.94759L5.72123 3.43871ZM8.99535 3.94759L9.72123 3.43871L10.4236 3.94759L10.2052 3.04198L10.7692 2.46807H10.0514L9.72022 1.729L9.43779 2.46807H8.5957L9.24042 3.04198L8.99535 3.94759ZM13.7212 3.43871L12.9954 3.94759L13.2404 3.04198L12.5957 2.46807H13.4378L13.7202 1.729L14.0514 2.46807H14.7692L14.2052 3.04198L14.4236 3.94759L13.7212 3.43871ZM0.995355 7.94759L1.72123 7.43871L2.42357 7.94759L2.20521 7.04198L2.76925 6.46807H2.05139L1.72022 5.729L1.43779 6.46807H0.595703L1.24042 7.04198L0.995355 7.94759ZM5.72123 7.43871L4.99535 7.94759L5.24042 7.04198L4.5957 6.46807H5.43779L5.72022 5.729L6.05139 6.46807H6.76925L6.20521 7.04198L6.42357 7.94759L5.72123 7.43871ZM8.99535 7.94759L9.72123 7.43871L10.4236 7.94759L10.2052 7.04198L10.7692 6.46807H10.0514L9.72022 5.729L9.43779 6.46807H8.5957L9.24042 7.04198L8.99535 7.94759ZM13.7212 7.43871L12.9954 7.94759L13.2404 7.04198L12.5957 6.46807H13.4378L13.7202 5.729L14.0514 6.46807H14.7692L14.2052 7.04198L14.4236 7.94759L13.7212 7.43871ZM0.995355 11.9476L1.72123 11.4387L2.42357 11.9476L2.20521 11.042L2.76925 10.4681H2.05139L1.72022 9.729L1.43779 10.4681H0.595703L1.24042 11.042L0.995355 11.9476ZM5.72123 11.4387L4.99535 11.9476L5.24042 11.042L4.5957 10.4681H5.43779L5.72022 9.729L6.05139 10.4681H6.76925L6.20521 11.042L6.42357 11.9476L5.72123 11.4387ZM8.99535 11.9476L9.72123 11.4387L10.4236 11.9476L10.2052 11.042L10.7692 10.4681H10.0514L9.72022 9.729L9.43779 10.4681H8.5957L9.24042 11.042L8.99535 11.9476ZM13.7212 11.4387L12.9954 11.9476L13.2404 11.042L12.5957 10.4681H13.4378L13.7202 9.729L14.0514 10.4681H14.7692L14.2052 11.042L14.4236 11.9476L13.7212 11.4387ZM16.9954 3.94759L17.7212 3.43871L18.4236 3.94759L18.2052 3.04198L18.7692 2.46807H18.0514L17.7202 1.729L17.4378 2.46807H16.5957L17.2404 3.04198L16.9954 3.94759ZM17.7212 7.43871L16.9954 7.94759L17.2404 7.04198L16.5957 6.46807H17.4378L17.7202 5.729L18.0514 6.46807H18.7692L18.2052 7.04198L18.4236 7.94759L17.7212 7.43871ZM16.9954 11.9476L17.7212 11.4387L18.4236 11.9476L18.2052 11.042L18.7692 10.4681H18.0514L17.7202 9.729L17.4378 10.4681H16.5957L17.2404 11.042L16.9954 11.9476ZM3.72123 5.43871L2.99535 5.94759L3.24042 5.04198L2.5957 4.46807H3.43779L3.72022 3.729L4.05139 4.46807H4.76925L4.20521 5.04198L4.42357 5.94759L3.72123 5.43871ZM6.99535 5.94759L7.72123 5.43871L8.42357 5.94759L8.20521 5.04198L8.76925 4.46807H8.05139L7.72022 3.729L7.43779 4.46807H6.5957L7.24042 5.04198L6.99535 5.94759ZM11.7212 5.43871L10.9954 5.94759L11.2404 5.04198L10.5957 4.46807H11.4378L11.7202 3.729L12.0514 4.46807H12.7692L12.2052 5.04198L12.4236 5.94759L11.7212 5.43871ZM2.99535 9.94759L3.72123 9.43871L4.42357 9.94759L4.20521 9.04198L4.76925 8.46807H4.05139L3.72022 7.729L3.43779 8.46807H2.5957L3.24042 9.04198L2.99535 9.94759ZM7.72123 9.43871L6.99535 9.94759L7.24042 9.04198L6.5957 8.46807H7.43779L7.72022 7.729L8.05139 8.46807H8.76925L8.20521 9.04198L8.42357 9.94759L7.72123 9.43871ZM10.9954 9.94759L11.7212 9.43871L12.4236 9.94759L12.2052 9.04198L12.7692 8.46807H12.0514L11.7202 7.729L11.4378 8.46807H10.5957L11.2404 9.04198L10.9954 9.94759ZM15.7212 5.43871L14.9954 5.94759L15.2404 5.04198L14.5957 4.46807H15.4378L15.7202 3.729L16.0514 4.46807H16.7692L16.2052 5.04198L16.4236 5.94759L15.7212 5.43871ZM14.9954 9.94759L15.7212 9.43871L16.4236 9.94759L16.2052 9.04198L16.7692 8.46807H16.0514L15.7202 7.729L15.4378 8.46807H14.5957L15.2404 9.04198L14.9954 9.94759Z" fill="#F7FCFF"/>
</svg>
